<svg preserveAspectRatio="none" width="100%" height="100%" overflow="visible" style="display: block;" viewBox="0 0 188 52" fill="none" xmlns="http://www.w3.org/2000/svg">
<g id="Calque 5">
<path id="Vector" d="M115.553 44.4254C131.895 44.9167 148.801 44.1356 163.783 40.0714C176.33 36.6676 188.713 30.021 187.968 21.3667C187.781 19.1921 186.81 17.0896 185.022 15.1691C183.234 13.2487 180.473 11.6115 177.403 10.2642C171.463 7.65842 163.996 6.28836 156.874 5.18266C140.82 2.69011 124.275 1.17052 107.703 0.452173C91.1337 -0.266176 74.4491 -0.126948 57.9215 0.85794C49.7653 1.34388 41.5565 1.94467 33.607 3.13488C26.1554 4.25033 18.6794 5.91456 12.5273 8.63357C6.84957 11.1424 1.53172 14.6155 0.326279 18.8248C-0.25812 20.8645 -0.104033 22.9534 1.17281 24.9037C2.51449 26.9531 4.56742 28.7392 7.15117 30.3423C12.0876 33.4053 18.5188 35.64 24.9359 37.5155C32.0191 39.586 39.404 41.331 46.9185 42.8072C62.1796 45.8052 78.0495 47.6856 93.9993 48.9587C111.27 50.3369 128.656 51.0552 146.058 51.6111C150.252 51.7449 154.447 51.8711 158.642 51.9973C160.977 52.0672 163.209 50.7638 163.105 49.424C162.992 47.97 161.143 46.9261 158.642 46.8508C142.006 46.3513 125.36 45.8529 108.787 44.8517C106.74 44.7282 104.696 44.5971 102.653 44.4568C101.632 44.3869 100.613 44.3149 99.5933 44.2407C99.1405 44.2076 98.6876 44.174 98.2357 44.1404C97.9529 44.1193 97.6701 44.0976 97.3873 44.0765C97.2182 44.0635 97.0481 44.0505 96.879 44.0375C97.4437 44.0814 97.5573 44.09 97.2182 44.0635C93.2025 43.7423 89.1935 43.3955 85.1985 42.9963C77.6013 42.2367 70.0502 41.3104 62.5996 40.1646C55.1489 39.0188 48.0168 37.6942 40.958 36.0755C40.1443 35.8886 39.3345 35.6963 38.5236 35.5045C37.5672 35.2781 39.2104 35.6746 38.595 35.5229C38.3592 35.465 38.1224 35.407 37.8866 35.3485C37.4159 35.2315 36.9461 35.1139 36.4773 34.9942C34.7983 34.5662 33.1325 34.1215 31.4827 33.6583C28.322 32.7714 25.2055 31.8272 22.2253 30.7507C20.7868 30.2312 19.3803 29.6819 18.0227 29.0946C17.9362 29.0572 17.1771 28.7577 17.8103 29.0036C18.3637 29.2181 17.8545 29.0215 17.7173 28.9581C17.3951 28.8097 17.0766 28.6591 16.7609 28.5058C16.1408 28.2045 15.5348 27.893 14.9475 27.5702C14.3744 27.2554 13.8182 26.9304 13.2836 26.5934C13.0506 26.4466 12.8223 26.2976 12.5977 26.1459C12.4587 26.0522 12.3224 25.9574 12.1871 25.8621C11.5605 25.4189 12.5179 26.127 12.2576 25.9222C11.3819 25.2325 10.5796 24.5202 9.93975 23.7476C9.85519 23.6458 9.79037 23.5282 9.68889 23.4323C9.7152 23.4567 10.106 24.0505 9.8627 23.6647C9.75371 23.4925 9.63815 23.3218 9.53856 23.1479C9.28958 22.714 9.09322 22.2698 8.9551 21.819C8.94477 21.7854 8.87899 21.5471 8.87993 21.5471C8.90906 21.546 9.01147 22.2551 8.95228 21.8196C8.92785 21.6365 8.89967 21.4539 8.8884 21.2697C8.86303 20.8504 8.79067 20.3217 8.98985 19.9132C8.98422 19.9251 8.7982 20.6099 8.93067 20.1933C8.95886 20.1039 8.98422 20.0145 9.01428 19.9251C9.08287 19.7236 9.16273 19.5237 9.25293 19.3249C9.44648 18.8985 9.75936 18.4965 9.96982 18.0756C9.95572 18.1032 9.5038 18.6807 9.80446 18.3015C9.87304 18.2159 9.93881 18.1292 10.0093 18.0442C10.1681 17.8502 10.3362 17.6595 10.5129 17.4705C10.8925 17.0642 11.3096 16.6692 11.7587 16.2873C11.9758 16.1026 12.2069 15.9238 12.4314 15.7418C12.7603 15.4752 11.8508 16.16 12.2097 15.9043C12.3478 15.8062 12.4831 15.7071 12.6231 15.6096C13.1342 15.2537 13.6707 14.9097 14.2288 14.5786C14.7869 14.2476 15.3929 13.9128 16.0055 13.5986C16.2817 13.4567 16.5617 13.3175 16.8454 13.181C16.9882 13.1121 17.132 13.0439 17.2757 12.9767C17.4204 12.909 17.567 12.8418 17.7136 12.7752L17.2551 12.9789C17.4637 12.9745 18.0884 12.6219 18.2782 12.5439C18.6259 12.4014 18.9773 12.2616 19.3324 12.1251C20.0887 11.8353 20.862 11.5601 21.6503 11.2995C23.2005 10.787 24.8081 10.3303 26.4448 9.91641C26.7323 9.84382 27.2941 9.62604 26.3537 9.93537C26.5181 9.8812 26.7445 9.84219 26.9155 9.8021C27.2913 9.71434 27.669 9.62875 28.0486 9.54478C28.9543 9.34487 29.8676 9.15743 30.7864 8.98028C32.5979 8.63194 34.4328 8.32531 36.2819 8.05228C39.9386 7.5127 43.6507 7.10314 47.3798 6.76835C48.3165 6.68438 49.2542 6.60474 50.1938 6.52944C50.4014 6.51265 50.6119 6.49964 50.8195 6.4796C50.7058 6.49043 49.7644 6.55978 50.5715 6.4991C51.092 6.4601 51.6134 6.42109 52.1339 6.38371C54.1164 6.24123 56.1007 6.11121 58.0878 5.99366C62.1317 5.75421 66.1849 5.56568 70.2428 5.42753C78.2928 5.15395 86.3636 5.07974 94.4249 5.2065C102.44 5.33219 110.447 5.65669 118.413 6.1838C119.342 6.24556 120.27 6.30949 121.198 6.37666C121.689 6.41242 122.18 6.44817 122.671 6.48555C122.833 6.49801 123.551 6.55165 122.894 6.50235C122.175 6.44817 123.305 6.53485 123.444 6.54623C125.398 6.70225 127.35 6.87073 129.298 7.05168C133.229 7.41681 137.146 7.83341 141.044 8.30256C148.344 9.18018 155.726 10.1434 162.743 11.6164C163.567 11.7892 164.384 11.9734 165.195 12.1636C165.98 12.3477 164.927 12.1072 164.929 12.0985C164.925 12.1121 165.518 12.2475 165.587 12.2654C166.021 12.3775 166.454 12.4929 166.882 12.6127C168.385 13.032 169.85 13.4995 171.244 14.0304C171.583 14.1599 171.919 14.2931 172.25 14.4302C172.337 14.4665 172.562 14.5906 172.684 14.6144C172.098 14.5001 172.057 14.3256 172.417 14.4958C173.101 14.8197 173.77 15.1496 174.399 15.5094C174.942 15.8198 175.436 16.1513 175.932 16.4856C176.304 16.7359 175.388 16.0576 175.719 16.3241C175.846 16.426 175.978 16.5262 176.102 16.6291C176.349 16.8328 176.584 17.0414 176.806 17.2538C177.18 17.6097 177.52 17.9775 177.824 18.3551C177.978 18.5469 178.052 18.8492 177.728 18.2067C177.773 18.2961 177.856 18.3898 177.913 18.4759C178.062 18.7008 178.198 18.9283 178.321 19.158C178.53 19.547 178.702 19.9424 178.84 20.3417C178.911 20.5513 179.05 21.3 178.9 20.4365C178.941 20.6749 178.993 20.9121 179.021 21.1511C179.072 21.5823 179.082 22.0157 179.053 22.4474C179.04 22.6403 179.02 22.8332 178.991 23.0255C178.977 23.1219 178.956 23.2183 178.943 23.3148C178.869 23.8338 179.108 22.7286 178.972 23.2086C178.723 24.0857 178.352 24.9443 177.825 25.7802C177.751 25.8978 177.674 26.0143 177.594 26.1308C177.435 26.3621 177.123 26.4791 177.692 26.0029C177.504 26.1605 177.396 26.38 177.25 26.5533C176.879 26.99 176.47 27.4152 176.026 27.8286C175.649 28.1791 175.248 28.5209 174.828 28.8541C174.729 28.9321 174.629 29.0085 174.53 29.0865C174.004 29.5009 175.073 28.6975 174.689 28.9668C174.42 29.1548 174.157 29.3444 173.881 29.5286C172.841 30.2247 171.717 30.878 170.529 31.4907C170.004 31.7622 169.466 32.0249 168.917 32.2806C168.744 32.3613 168.568 32.4399 168.395 32.5201C167.909 32.7433 169.307 32.1305 168.552 32.4469C168.188 32.5997 167.828 32.7552 167.46 32.9052C164.728 34.0158 161.799 34.9622 158.763 35.7656C158.418 35.8572 158.071 35.9466 157.722 36.0343C157.623 36.0598 156.789 36.3036 157.467 36.0993C158.14 35.8962 157.311 36.1346 157.206 36.1595C156.405 36.3464 155.598 36.5246 154.786 36.6931C153.119 37.0387 151.43 37.3459 149.723 37.6173C147.847 37.9158 145.951 38.1726 144.042 38.3925C143.084 38.5025 142.123 38.6033 141.159 38.6954C140.676 38.7414 140.193 38.7853 139.709 38.827C139.494 38.8454 139.279 38.8639 139.063 38.8812C138.901 38.8947 138.74 38.9077 138.578 38.9202C139.171 38.8747 139.297 38.8649 138.955 38.8904C134.989 39.1656 131.017 39.3401 127.023 39.3921C123.2 39.4419 119.375 39.3937 115.555 39.2788C113.221 39.2084 110.988 40.5124 111.092 41.8521C111.205 43.3061 113.054 44.3501 115.555 44.4254L115.553 44.4254Z" fill="#C3EA4F"/>
</g>
</svg>
