<svg preserveAspectRatio="none" width="100%" height="100%" overflow="visible" style="display: block;" viewBox="0 0 105 51" fill="none" xmlns="http://www.w3.org/2000/svg">
<g id="Calque 6">
<path id="Vector" d="M64.5377 43.571C73.6647 44.053 83.107 43.2868 91.4746 39.3008C98.4821 35.9625 105.398 29.4437 104.982 20.9558C104.878 18.823 104.335 16.761 103.337 14.8774C102.338 12.9939 100.796 11.3882 99.0813 10.0668C95.7639 7.51116 91.5932 6.16745 87.6156 5.08302C78.6492 2.6384 69.409 1.14803 60.1529 0.443498C50.899 -0.261036 41.5805 -0.124485 32.3497 0.841462C27.7944 1.31806 23.2096 1.9073 18.7698 3.07462C14.608 4.16861 10.4326 5.80084 6.99653 8.46755C3.82548 10.9281 0.855404 14.3344 0.182153 18.4628C-0.14424 20.4633 -0.0581804 22.512 0.654952 24.4248C1.40429 26.4348 2.55087 28.1866 3.99393 29.7588C6.75095 32.7629 10.3429 34.9546 13.9269 36.794C17.8829 38.8247 22.0075 40.5361 26.2044 41.984C34.7279 44.9243 43.5914 46.7686 52.4995 48.0172C62.1454 49.3689 71.8559 50.0734 81.5747 50.6185C83.9172 50.7498 86.2602 50.8736 88.6032 50.9974C89.9072 51.0659 91.154 49.7875 91.0957 48.4736C91.0328 47.0475 90.0001 46.0236 88.6032 45.9498C79.312 45.4599 70.0145 44.9711 60.7585 43.9892C59.6156 43.8681 58.4737 43.7395 57.3324 43.6019C56.7625 43.5333 56.1932 43.4627 55.6238 43.3899C55.3709 43.3575 55.118 43.3245 54.8656 43.2916C54.7076 43.2708 54.5497 43.2496 54.3917 43.2289C54.2973 43.2161 54.2023 43.2034 54.1078 43.1906C54.4232 43.2337 54.4867 43.2422 54.2973 43.2161C52.0545 42.901 49.8154 42.561 47.5842 42.1694C43.3411 41.4245 39.1237 40.5159 34.9624 39.3922C30.8012 38.2684 26.8178 36.9694 22.8754 35.3818C22.421 35.1985 21.9686 35.0098 21.5158 34.8217C20.9816 34.5997 21.8994 34.9886 21.5557 34.8398C21.4239 34.783 21.2917 34.7261 21.16 34.6687C20.8971 34.554 20.6347 34.4387 20.3729 34.3212C19.4351 33.9015 18.5048 33.4653 17.5833 33.011C15.8181 32.1412 14.0775 31.2151 12.413 30.1594C11.6096 29.6498 10.824 29.1111 10.0658 28.5351C10.0175 28.4985 9.59351 28.2046 9.94719 28.4459C10.2563 28.6563 9.97185 28.4634 9.89524 28.4012C9.71525 28.2556 9.53736 28.1079 9.36105 27.9576C9.01471 27.6622 8.67625 27.3566 8.34828 27.04C8.02819 26.7313 7.71754 26.4125 7.41896 26.082C7.28882 25.938 7.1613 25.7919 7.03589 25.6431C6.95823 25.5512 6.88213 25.4582 6.80657 25.3647C6.45656 24.9301 6.99128 25.6245 6.84592 25.4237C6.35686 24.7473 5.90873 24.0486 5.55137 23.291C5.50415 23.1911 5.46794 23.0758 5.41127 22.9817C5.42596 23.0056 5.64425 23.588 5.50834 23.2097C5.44747 23.0407 5.38293 22.8733 5.32731 22.7028C5.18825 22.2772 5.07858 21.8415 5.00144 21.3994C4.99567 21.3665 4.95893 21.1327 4.95946 21.1327C4.97572 21.1317 5.03292 21.8272 4.99986 21.4C4.98622 21.2204 4.97048 21.0413 4.96418 20.8607C4.95002 20.4494 4.9096 19.9309 5.02085 19.5302C5.0177 19.5419 4.91381 20.2135 4.9878 19.8049C5.00354 19.7173 5.0177 19.6296 5.03449 19.5419C5.0728 19.3443 5.1174 19.1482 5.16778 18.9532C5.27588 18.5351 5.45063 18.1408 5.56817 17.728C5.5603 17.7551 5.30789 18.3215 5.47581 17.9496C5.51412 17.8656 5.55085 17.7806 5.5902 17.6972C5.67889 17.507 5.77282 17.3199 5.87148 17.1345C6.08347 16.736 6.31646 16.3487 6.56729 15.9741C6.68851 15.7929 6.81759 15.6176 6.94301 15.4391C7.12667 15.1776 6.61871 15.8492 6.81916 15.5984C6.8963 15.5023 6.97187 15.405 7.05006 15.3094C7.33552 14.9603 7.63514 14.6229 7.94684 14.2983C8.25854 13.9737 8.59701 13.6453 8.93915 13.3371C9.09342 13.1979 9.24979 13.0614 9.40827 12.9275C9.48803 12.86 9.56832 12.7931 9.64861 12.7272C9.72942 12.6608 9.81127 12.5949 9.89313 12.5295L9.63706 12.7293C9.75356 12.7251 10.1025 12.3792 10.2085 12.3026C10.4027 12.1629 10.5989 12.0258 10.7973 11.8919C11.2197 11.6077 11.6516 11.3378 12.0918 11.0822C12.9577 10.5796 13.8555 10.1317 14.7696 9.72573C14.9302 9.65453 15.244 9.44094 14.7187 9.74432C14.8105 9.69119 14.937 9.65294 15.0325 9.61362C15.2424 9.52754 15.4534 9.44359 15.6654 9.36124C16.1712 9.16518 16.6813 8.98134 17.1945 8.8076C18.2062 8.46596 19.231 8.16523 20.2637 7.89744C22.306 7.36824 24.3793 6.96656 26.462 6.6382C26.9852 6.55585 27.5089 6.47774 28.0337 6.40389C28.1496 6.38742 28.2672 6.37467 28.3831 6.35501C28.3196 6.36564 27.7938 6.43365 28.2446 6.37414C28.5353 6.33588 28.8266 6.29763 29.1173 6.26096C30.2245 6.12123 31.3327 5.99371 32.4426 5.87841C34.7011 5.64357 36.9649 5.45866 39.2312 5.32318C43.7273 5.05486 48.2349 4.98207 52.7372 5.1064C57.2138 5.22966 61.6857 5.54792 66.1345 6.0649C66.6535 6.12547 67.172 6.18817 67.6904 6.25405C67.9643 6.28912 68.2388 6.32419 68.5127 6.36085C68.6035 6.37307 69.0044 6.42567 68.6376 6.37732C68.2361 6.32419 68.8669 6.4092 68.9446 6.42036C70.036 6.57338 71.1265 6.73862 72.2143 6.91608C74.4098 7.2742 76.5975 7.68278 78.7747 8.14291C82.8514 9.00365 86.9744 9.94834 90.8937 11.393C91.3539 11.5625 91.8099 11.7432 92.2633 11.9297C92.7015 12.1103 92.1132 11.8744 92.1143 11.8659C92.1122 11.8792 92.4433 12.012 92.4821 12.0295C92.7245 12.1395 92.9659 12.2527 93.2052 12.3701C94.0448 12.7814 94.8629 13.2399 95.6416 13.7606C95.831 13.8876 96.0184 14.0183 96.2031 14.1527C96.2519 14.1883 96.3778 14.31 96.4455 14.3334C96.1186 14.2213 96.0955 14.0502 96.2965 14.217C96.6785 14.5347 97.0521 14.8583 97.4037 15.2111C97.707 15.5156 97.9825 15.8407 98.2596 16.1686C98.4674 16.414 97.9558 15.7488 98.141 16.0102C98.2118 16.1101 98.2853 16.2084 98.3546 16.3094C98.4926 16.5091 98.6238 16.7137 98.7481 16.922C98.957 17.271 99.1464 17.6318 99.3164 18.0021C99.4025 18.1902 99.4439 18.4867 99.2629 17.8566C99.2881 17.9442 99.3343 18.0362 99.3663 18.1206C99.4492 18.3411 99.5253 18.5643 99.594 18.7896C99.711 19.1711 99.8071 19.5589 99.8837 19.9505C99.9236 20.1561 100.001 20.8904 99.9173 20.0435C99.9403 20.2773 99.9692 20.51 99.985 20.7443C100.013 21.1672 100.019 21.5923 100.003 22.0158C99.9954 22.2049 99.9844 22.3941 99.9682 22.5827C99.9603 22.6773 99.9487 22.7718 99.9414 22.8664C99.8999 23.3754 100.034 22.2915 99.9577 22.7623C99.8186 23.6225 99.6113 24.4646 99.3169 25.2845C99.2755 25.3998 99.2325 25.514 99.1879 25.6282C99.0992 25.8551 98.925 25.9699 99.243 25.5029C99.138 25.6575 99.0777 25.8727 98.9958 26.0427C98.7885 26.4709 98.5603 26.888 98.3121 27.2934C98.1016 27.6372 97.8776 27.9724 97.643 28.2992C97.5879 28.3757 97.5318 28.4506 97.4767 28.5271C97.1828 28.9336 97.78 28.1457 97.5653 28.4097C97.4153 28.5941 97.2683 28.7801 97.1141 28.9607C96.5332 29.6435 95.9056 30.2842 95.2423 30.8852C94.9489 31.1514 94.6483 31.409 94.3418 31.6598C94.2453 31.739 94.1471 31.816 94.0501 31.8947C93.7788 32.1136 94.5596 31.5127 94.1382 31.8229C93.9346 31.9728 93.7336 32.1253 93.5279 32.2724C92.0025 33.3617 90.3663 34.2899 88.6709 35.0778C88.4778 35.1676 88.2841 35.2553 88.0894 35.3414C88.0338 35.3663 87.5684 35.6054 87.9467 35.4051C88.323 35.2059 87.8596 35.4397 87.8008 35.4641C87.3538 35.6474 86.903 35.8222 86.4496 35.9875C85.5187 36.3264 84.5752 36.6277 83.6217 36.8939C82.5738 37.1867 81.5149 37.4385 80.4486 37.6542C79.9139 37.7621 79.3771 37.8609 78.8387 37.9512C78.569 37.9964 78.2992 38.0394 78.029 38.0803C77.9088 38.0984 77.7887 38.1165 77.668 38.1335C77.5777 38.1468 77.4875 38.1595 77.3972 38.1717C77.7283 38.1271 77.7986 38.1175 77.6076 38.1425C75.3927 38.4124 73.174 38.5835 70.9433 38.6345C68.8081 38.6834 66.6719 38.6361 64.5388 38.5235C63.2348 38.4544 61.988 39.7333 62.0462 41.0473C62.1092 42.4733 63.1419 43.4972 64.5388 43.571L64.5377 43.571Z" fill="#C3EA4F"/>
</g>
</svg>
