<svg preserveAspectRatio="none" width="100%" height="100%" overflow="visible" style="display: block;" viewBox="0 0 127.269 56.0001" fill="none" xmlns="http://www.w3.org/2000/svg">
<g id="Calque 5">
<path id="Vector" d="M78.2252 47.8427C89.2878 48.3718 100.733 47.5306 110.875 43.1538C119.369 39.4882 127.752 32.3303 127.247 23.0102C127.121 20.6684 126.463 18.4042 125.253 16.336C124.042 14.2678 122.174 12.5047 120.095 11.0538C116.074 8.24753 111.019 6.77207 106.198 5.58133C95.3296 2.89704 84.1296 1.26056 72.9105 0.486955C61.694 -0.286651 50.3992 -0.136713 39.2106 0.923935C33.6892 1.44726 28.1321 2.09426 22.7506 3.37602C17.7062 4.57727 12.6452 6.36952 8.48043 9.29768C4.63685 11.9995 1.03687 15.7397 0.220828 20.2729C-0.174787 22.4694 -0.0704763 24.7191 0.7939 26.8194C1.70216 29.0264 3.09192 30.9499 4.84102 32.6763C8.18277 35.9749 12.5365 38.3815 16.8806 40.4012C21.6757 42.6311 26.6749 44.5102 31.762 46.1C42.0932 49.3286 52.8365 51.3537 63.6339 52.7247C75.3255 54.2089 87.0954 54.9825 98.8755 55.5811C101.715 55.7252 104.555 55.8611 107.395 55.9971C108.975 56.0723 110.486 54.6686 110.416 53.2259C110.339 51.66 109.088 50.5357 107.395 50.4546C96.1329 49.9167 84.8636 49.38 73.6445 48.3018C72.2592 48.1688 70.8752 48.0276 69.4918 47.8765C68.8011 47.8013 68.1109 47.7237 67.4208 47.6437C67.1143 47.6082 66.8077 47.572 66.5018 47.5358C66.3103 47.5131 66.1189 47.4897 65.9274 47.467C65.8129 47.453 65.6978 47.439 65.5833 47.425C65.9656 47.4722 66.0425 47.4816 65.8129 47.453C63.0945 47.107 60.3805 46.7336 57.6761 46.3036C52.5331 45.4857 47.4212 44.4881 42.3775 43.2541C37.3337 42.0202 32.5055 40.5938 27.7269 38.8505C27.1761 38.6493 26.6279 38.4421 26.079 38.2356C25.4315 37.9917 26.5439 38.4188 26.1273 38.2554C25.9677 38.193 25.8074 38.1306 25.6477 38.0676C25.3291 37.9416 25.0111 37.815 24.6937 37.686C23.5571 37.2251 22.4294 36.7462 21.3125 36.2473C19.1729 35.2923 17.0631 34.2754 15.0456 33.1162C14.0718 32.5567 13.1197 31.9651 12.2006 31.3327C12.1421 31.2924 11.6282 30.9698 12.0569 31.2346C12.4315 31.4657 12.0868 31.2539 11.9939 31.1856C11.7757 31.0258 11.5601 30.8636 11.3464 30.6985C10.9266 30.3741 10.5164 30.0386 10.1189 29.6909C9.73088 29.352 9.35435 29.0019 8.99245 28.639C8.83471 28.4809 8.68015 28.3205 8.52813 28.1571C8.434 28.0562 8.34177 27.9541 8.25018 27.8514C7.82594 27.3742 8.47406 28.1367 8.29788 27.9162C7.70509 27.1735 7.16192 26.4063 6.72878 25.5744C6.67154 25.4647 6.62765 25.3381 6.55896 25.2348C6.57677 25.2611 6.84135 25.9005 6.67662 25.4851C6.60284 25.2996 6.52461 25.1158 6.45719 24.9285C6.28864 24.4612 6.15571 23.9828 6.06221 23.4974C6.05522 23.4612 6.01069 23.2045 6.01133 23.2045C6.03104 23.2034 6.10037 23.967 6.0603 23.498C6.04376 23.3008 6.02469 23.1042 6.01706 22.9058C5.99988 22.4543 5.9509 21.8848 6.08574 21.4449C6.08192 21.4578 5.95599 22.1952 6.04567 21.7466C6.06475 21.6503 6.08192 21.5541 6.10227 21.4578C6.14871 21.2408 6.20277 21.0255 6.26383 20.8114C6.39485 20.3522 6.60666 19.9193 6.74914 19.466C6.7396 19.4958 6.43366 20.1177 6.63719 19.7093C6.68362 19.6171 6.72814 19.5238 6.77584 19.4322C6.88334 19.2233 6.99719 19.0179 7.11677 18.8143C7.37373 18.3768 7.65613 17.9515 7.96016 17.5402C8.10708 17.3412 8.26354 17.1487 8.41555 16.9527C8.63817 16.6656 8.02247 17.4031 8.26544 17.1277C8.35894 17.0221 8.45054 16.9153 8.54531 16.8103C8.89131 16.427 9.25448 16.0565 9.63229 15.7001C10.0101 15.3436 10.4203 14.9831 10.835 14.6447C11.022 14.4918 11.2116 14.3419 11.4037 14.1949C11.5003 14.1208 11.5977 14.0473 11.695 13.9749C11.7929 13.902 11.8921 13.8296 11.9914 13.7579L11.681 13.9772C11.8222 13.9726 12.2451 13.5928 12.3736 13.5088C12.609 13.3553 12.8468 13.2048 13.0873 13.0578C13.5993 12.7457 14.1227 12.4493 14.6564 12.1687C15.7058 11.6168 16.7941 11.1249 17.9021 10.6792C18.0967 10.601 18.477 10.3665 17.8404 10.6996C17.9517 10.6413 18.105 10.5993 18.2207 10.5561C18.4751 10.4616 18.7308 10.3694 18.9878 10.279C19.6009 10.0637 20.2191 9.86184 20.8412 9.67107C22.0675 9.29593 23.3097 8.96572 24.5614 8.67168C27.0369 8.0906 29.5498 7.64953 32.0743 7.28898C32.7084 7.19855 33.3432 7.11279 33.9792 7.0317C34.1198 7.01361 34.2622 6.99961 34.4028 6.97803C34.3258 6.98969 33.6885 7.06437 34.2349 6.99903C34.5873 6.95702 34.9403 6.91502 35.2926 6.87476C36.6347 6.72132 37.978 6.5813 39.3232 6.4547C42.0607 6.19683 44.8046 5.9938 47.5516 5.84503C53.0012 5.55041 58.4648 5.47048 63.922 5.607C69.348 5.74235 74.7684 6.09182 80.1607 6.65948C80.7897 6.72599 81.4181 6.79483 82.0465 6.86717C82.3786 6.90568 82.7112 6.94418 83.0432 6.98444C83.1533 6.99786 83.6392 7.05562 83.1946 7.00252C82.708 6.94418 83.4725 7.03753 83.5667 7.04978C84.8896 7.2178 86.2113 7.39925 87.5298 7.59411C90.191 7.98733 92.8427 8.43597 95.4816 8.94121C100.423 9.88634 105.42 10.9236 110.171 12.51C110.729 12.6961 111.281 12.8944 111.831 13.0992C112.362 13.2976 111.649 13.0385 111.65 13.0292C111.648 13.0438 112.049 13.1896 112.096 13.2089C112.39 13.3296 112.683 13.4539 112.973 13.5828C113.99 14.0344 114.982 14.5379 115.926 15.1096C116.155 15.2491 116.382 15.3926 116.606 15.5402C116.665 15.5793 116.818 15.7129 116.9 15.7386C116.504 15.6155 116.476 15.4276 116.72 15.6108C117.183 15.9597 117.635 16.315 118.062 16.7024C118.429 17.0367 118.763 17.3937 119.099 17.7537C119.351 18.0232 118.731 17.2928 118.955 17.5798C119.041 17.6895 119.13 17.7974 119.214 17.9083C119.381 18.1276 119.54 18.3523 119.691 18.581C119.944 18.9643 120.174 19.3604 120.38 19.767C120.484 19.9736 120.535 20.2991 120.315 19.6072C120.346 19.7034 120.402 19.8044 120.44 19.8971C120.541 20.1393 120.633 20.3843 120.716 20.6317C120.858 21.0506 120.975 21.4764 121.068 21.9064C121.116 22.1322 121.21 22.9385 121.108 22.0085C121.136 22.2652 121.171 22.5208 121.19 22.778C121.225 23.2424 121.232 23.7092 121.212 24.1742C121.203 24.3818 121.19 24.5895 121.17 24.7967C121.16 24.9005 121.146 25.0043 121.137 25.1082C121.087 25.6671 121.249 24.4769 121.157 24.9939C120.989 25.9384 120.737 26.8631 120.381 27.7633C120.33 27.8899 120.278 28.0154 120.224 28.1408C120.117 28.3899 119.905 28.5159 120.291 28.0031C120.164 28.1729 120.091 28.4092 119.991 28.5959C119.74 29.0661 119.463 29.5241 119.163 29.9692C118.908 30.3467 118.636 30.7148 118.352 31.0736C118.285 31.1576 118.217 31.2399 118.15 31.3239C117.794 31.7702 118.518 30.905 118.257 31.195C118.076 31.3974 117.897 31.6016 117.71 31.8C117.006 32.5496 116.246 33.2532 115.442 33.9131C115.086 34.2054 114.722 34.4883 114.35 34.7637C114.233 34.8506 114.114 34.9352 113.997 35.0216C113.668 35.2619 114.614 34.6021 114.104 34.9428C113.857 35.1073 113.613 35.2748 113.364 35.4364C111.515 36.6324 109.532 37.6516 107.477 38.5168C107.243 38.6154 107.008 38.7117 106.772 38.8062C106.704 38.8336 106.14 39.0961 106.599 38.8762C107.055 38.6574 106.493 38.9141 106.422 38.941C105.88 39.1422 105.334 39.3342 104.784 39.5156C103.656 39.8878 102.512 40.2186 101.357 40.5109C100.087 40.8324 98.803 41.1089 97.5106 41.3458C96.8624 41.4642 96.2118 41.5727 95.5592 41.6719C95.2323 41.7215 94.9053 41.7688 94.5778 41.8137C94.4321 41.8335 94.2865 41.8534 94.1402 41.872C94.0308 41.8866 93.9214 41.9006 93.812 41.914C94.2133 41.865 94.2986 41.8545 94.067 41.8819C91.3823 42.1783 88.6932 42.3662 85.9894 42.4222C83.4013 42.4759 80.812 42.4239 78.2265 42.3003C76.6459 42.2244 75.1347 43.6287 75.2053 45.0715C75.2816 46.6374 76.5334 47.7616 78.2265 47.8427L78.2252 47.8427Z" fill="#C3EA4F"/>
</g>
</svg>
