<svg preserveAspectRatio="none" width="100%" height="100%" overflow="visible" style="display: block;" viewBox="0 0 254 52.8495" fill="none" xmlns="http://www.w3.org/2000/svg">
<g id="Group 27">
<g id="Group">
<g id="Group_2">
<path id="Vector" d="M92.878 0H105.608C105.267 4.71036 104.939 9.42073 104.598 14.1437H104.964C105.848 8.72617 106.656 6.3773 108.627 3.81376C110.534 1.32598 112.946 0 115.737 0C115.762 0 115.787 0 115.8 0C119.273 0.0252566 121.912 3.16971 121.761 6.62986L121.306 16.6315H120.789C118.881 14.6488 117.568 13.9922 115.219 13.9922C112.731 13.9922 110.306 15.1666 108.993 17.0735C106.934 20.0033 106.139 24.4737 106.139 33.263C106.139 35.9781 106.214 38.6805 106.353 42.4943H92.8653V0H92.878Z" fill="#F4F0ED"/>
<path id="Vector_2" d="M125.562 0C129.894 0.0126283 134.213 0.0252551 138.545 0.0378834L138.393 7.03397C138.393 8.71353 138.317 9.8122 137.875 12.6031H138.393C139.201 8.34732 140.085 6.44044 142.207 4.24311C144.847 1.46488 148.358 0 152.538 0C157.223 0 161.189 1.90688 163.235 5.1271C165.142 8.13264 165.356 9.2313 165.356 17.4397V42.4943H151.578V22.491C151.578 17.7302 151.426 16.4799 150.77 15.2424C150.037 13.929 148.206 12.9693 146.299 12.9693C143.659 12.9693 141.31 14.5099 140.212 16.8588C139.555 18.3237 139.34 19.9401 139.34 23.2361V42.5069H125.562V0.012631V0Z" fill="#F4F0ED"/>
<path id="Vector_3" d="M181.787 26.0775C182.153 31.6465 185.967 34.3364 192.56 34.5763C196.588 34.7152 203.901 31.8233 205.896 29.967V37.3672C204.317 38.4153 202.006 39.7539 199.001 40.7137C191.916 42.9994 179.476 43.795 172.997 35.9528C168.943 31.053 169.057 24.9788 169.107 21.4681C169.158 18.0964 169.297 10.4436 175.207 4.9503C178.68 1.73008 183.555 0 189.617 0C201.489 0 208.157 7.40019 208.157 20.5841C208.157 22.6426 208.081 23.8044 207.727 26.0775H181.787ZM199.013 16.9977C198.066 12.4515 195.426 10.4815 190.299 10.4815C185.172 10.4815 182.09 12.7546 181.875 16.9977H199.026H199.013Z" fill="#F4F0ED"/>
</g>
<path id="Vector_4" d="M47.9561 35.0435C45.1271 28.8683 46.3143 21.1524 50.6082 16.783C53.715 13.6259 57.6679 12.7798 61.5577 13.6638C67.5187 15.015 73.9722 20.6599 78.4935 25.9259V18.8793C78.5061 16.7072 77.42 14.7751 75.9677 13.5375C70.8528 9.19338 58.0973 10.6204 51.8459 12.4389L49.661 2.32359C56.2408 0.0757503 65.1192 -0.36624 72.0273 0.429343C75.2731 0.795564 78.4304 1.54063 81.2593 3.46013C84.0882 5.37963 86.5004 8.06946 87.8644 11.6812C88.6853 13.8785 89.2283 16.2652 89.2283 18.7151C89.241 26.6457 89.2662 34.5889 89.2788 42.5195H79.668C77.8494 40.1454 76.0434 37.7712 74.2248 35.3971C73.707 34.993 73.366 35.0688 72.9366 35.4855C69.5015 38.8446 64.2604 42.027 59.8275 42.4311C55.0284 42.8731 50.3935 40.3853 47.9561 35.0688V35.0435ZM66.7483 27.8959C64.715 25.3955 60.2064 22.2637 57.971 24.9282C56.746 26.3931 56.8976 29.7144 58.2236 31.0909C60.4337 33.3766 64.7655 30.1059 66.7483 27.8959Z" fill="#F4F0ED"/>
<g id="Group_3">
<path id="Vector_5" d="M42.4864 52.8494V0.100938H29.6677C29.6804 1.288 29.693 2.47506 29.7056 3.66212C29.7056 5.01335 29.794 20.4199 29.6046 22.4152C28.9984 28.8051 26.3589 32.5304 21.5219 32.5304C18.5667 32.5304 16.4323 31.0277 15.2957 28.2873C13.9696 25.105 10.7492 23.1223 7.31404 23.4633L0.986809 24.0947C1.66879 37.0514 7.45297 44.4137 17.0891 44.4137C22.9995 44.4137 27.0282 41.4839 28.91 35.978H29.2762C28.5059 40.2211 28.4427 41.3324 28.4427 44.2621V52.8494" fill="#F4F0ED"/>
<path id="Vector_6" d="M27.7738 3.90213C27.1676 2.57616 25.7153 1.35121 25.2227 0.997618C24.465 0.593513 23.2273 0.0883786 21.6613 0.0883786C18.4408 0.101007 16.2686 2.31096 15.6877 2.92975C13.9954 2.03314 12.1136 1.73007 10.4213 2.46251C8.62794 3.23283 7.17558 4.86189 6.36731 6.88242C5.3696 7.24864 3.72781 8.03159 2.37648 9.78692C-0.679789 13.7901 -0.604014 20.8114 1.55558 22.2006C2.31333 22.6931 3.52574 22.592 4.06879 21.8848C5.2812 20.3189 2.427 16.9472 3.44996 13.3986C3.90461 11.8327 4.95284 10.8098 5.71059 10.2163V10.4057C5.81163 13.6259 8.00911 17.2755 11.1538 16.6567C11.9368 16.5052 12.6693 16.0379 13.0734 15.2171C13.5154 14.3205 13.4397 13.2723 13.3134 12.3505C13.0482 10.6835 12.202 9.13025 11.0527 8.0821C10.4844 7.57697 9.84034 7.18549 9.19625 7.03395C9.43621 6.68036 9.66353 6.37728 9.97926 6.06157C11.3306 4.74823 12.8461 4.74823 14.3995 5.44279C13.6544 8.11999 14.6394 13.2344 17.8473 12.6157C19.4638 12.3 20.0826 10.5951 19.969 8.89031C19.8679 7.14761 19.1607 5.70798 18.0114 4.58406C17.9736 4.54618 17.9104 4.50829 17.8725 4.4704C19.4133 3.32123 20.5752 3.18232 21.3834 3.3086C24.1871 3.72534 25.7405 7.69063 27.2813 7.14761C27.6349 7.02133 27.8622 6.70561 27.9127 6.62984C28.5568 5.70798 27.9506 4.28098 27.7738 3.8895V3.90213ZM10.8254 12.5399C10.8633 12.8303 10.9265 13.0955 10.6865 13.2092C10.4213 13.3228 10.0424 13.1713 9.81509 13.0577C9.10785 12.6914 8.64057 11.8706 8.40061 11.0624C8.23643 10.4689 8.16066 9.87532 8.26169 9.28179C9.60039 9.68589 10.6107 11.0245 10.8128 12.5399H10.8254ZM17.3042 9.31968H17.2663L17.2284 9.35756H17.1905V9.31968H17.1527V9.28179C17.1527 9.28179 16.9885 8.99134 16.9506 8.91557C16.6475 8.28416 16.4833 7.58959 16.5843 6.84452L16.6475 6.9203C17.2158 7.62748 17.3926 8.47358 17.3168 9.31968H17.2789H17.3042Z" fill="#F4F0ED"/>
</g>
</g>
<path id="Vector_7" d="M212.677 35.0181C209.848 28.8428 211.035 21.1269 215.329 16.7575C218.436 13.6005 222.389 12.7544 226.279 13.6384C232.24 14.9896 238.693 20.6344 243.215 25.9004V18.8538C243.227 16.6818 242.141 14.7496 240.689 13.5121C235.574 9.16793 222.819 10.5949 216.567 12.4134L214.382 2.29813C220.962 0.0502893 229.84 -0.391701 236.749 0.403882C239.994 0.770103 243.152 1.51517 245.98 3.43468C248.809 5.35418 251.222 8.04401 252.586 11.6557C253.406 13.853 253.95 16.2398 253.95 18.6897C253.962 26.6203 253.987 34.5635 254 42.494H244.389C242.571 40.1199 240.765 37.7458 238.946 35.3717C238.428 34.9676 238.087 35.0433 237.658 35.4601C234.223 38.8192 228.982 42.0015 224.549 42.4056C219.75 42.8476 215.115 40.3598 212.677 35.0433V35.0181ZM231.47 27.8831C229.436 25.3827 224.928 22.2509 222.692 24.9154C221.467 26.3803 221.619 29.7016 222.945 31.078C225.155 33.3638 229.487 30.093 231.47 27.8831Z" fill="#F4F0ED"/>
</g>
</svg>
