<svg preserveAspectRatio="none" width="100%" height="100%" overflow="visible" style="display: block;" viewBox="0 0 277.526 373.889" fill="none" xmlns="http://www.w3.org/2000/svg">
<path id="Vector" d="M197.486 125.906C213.012 103.325 222.037 83.6224 225.384 56.4658C227.826 36.571 220.227 2.3445 249.799 0.0974299C282.717 -2.39627 278.438 43.6137 275.667 65.2897C271.388 98.9135 254.133 135.524 232.379 161.42C227.469 167.257 211.037 180.575 209.473 185.015C207.251 191.235 210.735 219.241 210.077 229.052C207.498 268.266 183.523 354.887 145.035 371.357C118.591 382.674 99.772 353.627 115.134 332.307C118.673 327.402 124.927 325.593 129.646 318.057C147.833 289.147 160.918 247.74 158.477 213.541C135.406 214.966 111.458 219.899 88.6071 212.582C13.3056 188.55 -37.005 89.1853 34.4834 35.2557C99.0314 -13.4673 175.128 68.5781 197.486 125.961V125.906ZM149.013 143.17C141.99 121.823 119.002 91.1857 99.7172 79.786C53.7408 52.6568 38.9548 106.751 64.4942 138.484C86.5497 165.86 119.88 171.888 152.058 160.489C153.018 159.228 149.836 145.691 148.985 143.17H149.013Z" fill="#C3EA4F" fill-opacity="0.2"/>
</svg>
