<svg preserveAspectRatio="none" width="100%" height="100%" overflow="visible" style="display: block;" viewBox="0 0 539.05 428.85" fill="none" xmlns="http://www.w3.org/2000/svg">
<path id="Vector" d="M530.861 72.9568C519.274 47.5911 491.514 24.1579 482.1 17.3937C467.616 9.66317 443.96 0 414.027 0C352.472 0.241579 310.953 42.5178 299.849 54.3552C267.503 37.2031 231.535 31.4053 199.189 45.4169C164.911 60.1532 137.151 91.3168 121.702 129.969C102.632 136.975 71.2513 151.953 45.4224 185.532C-12.9943 262.113 -11.546 396.431 29.732 423.004C44.2154 432.426 67.389 430.493 77.7689 416.965C100.942 387.009 46.388 322.507 65.9407 254.624C74.6308 224.668 94.6663 205.1 109.15 193.746V197.37C111.081 258.972 153.083 328.789 213.19 316.951C228.156 314.052 242.157 305.114 249.881 289.411C258.33 272.259 256.881 252.208 254.467 234.573C249.398 202.684 233.225 172.97 211.258 152.919C200.396 143.256 188.085 135.767 175.774 132.868C180.36 126.104 184.705 120.306 190.74 114.267C216.569 89.1426 245.536 89.1426 275.227 102.429C260.985 153.644 279.814 251.483 341.127 239.646C372.025 233.606 383.853 200.993 381.681 168.38C379.75 135.042 366.232 107.503 344.265 86.0021C343.541 85.2774 342.334 84.5525 341.61 83.8278C371.06 61.8441 393.268 59.1868 408.717 61.6026C462.306 69.5747 491.997 145.43 521.446 135.043C528.205 132.627 532.551 126.587 533.516 125.138C545.827 107.502 534.24 80.2042 530.861 72.7152V72.9568ZM206.913 238.197C207.637 243.753 208.844 248.826 204.258 251C199.189 253.174 191.947 250.276 187.602 248.101C174.084 241.096 165.153 225.393 160.566 209.932C157.428 198.578 155.98 187.223 157.911 175.869C183.498 183.6 202.81 209.207 206.672 238.197H206.913ZM330.747 176.594H330.023L329.299 177.319H328.575V176.594H327.85V175.869C327.85 175.869 324.712 170.313 323.988 168.864C318.195 156.785 315.057 143.498 316.988 129.245L318.195 130.694C329.057 144.223 332.437 160.408 330.989 176.594H330.264H330.747Z" fill="#C3EA4F" fill-opacity="0.2"/>
</svg>
