<svg preserveAspectRatio="none" width="100%" height="100%" overflow="visible" style="display: block;" viewBox="0 0 110 44.0112" fill="none" xmlns="http://www.w3.org/2000/svg">
<g id="Calque 5">
<path id="Vector" d="M67.611 37.6003C77.1725 38.0162 87.0645 37.355 95.8306 33.9152C103.172 31.0344 110.417 25.4089 109.981 18.0841C109.872 16.2436 109.303 14.4641 108.257 12.8387C107.211 11.2133 105.596 9.82764 103.8 8.68731C100.324 6.48186 95.9548 5.32228 91.7878 4.38645C82.3945 2.27683 72.7142 0.990697 63.0174 0.382709C53.3228 -0.22528 43.5606 -0.107442 33.8902 0.726137C29.1179 1.13742 24.3149 1.64592 19.6635 2.65327C15.3036 3.59735 10.9294 5.00591 7.32968 7.30719C4.00763 9.43057 0.896117 12.3701 0.190807 15.9328C-0.151129 17.6591 -0.0609715 19.4271 0.68612 21.0777C1.47114 22.8123 2.67232 24.324 4.1841 25.6808C7.07241 28.2732 10.8354 30.1646 14.5901 31.752C18.7345 33.5044 23.0554 34.9813 27.4522 36.2307C36.3816 38.7681 45.6672 40.3596 54.9995 41.4371C65.1047 42.6036 75.2776 43.2116 85.4593 43.682C87.9133 43.7953 90.3678 43.9021 92.8224 44.0089C94.1885 44.0681 95.4947 42.9649 95.4337 41.831C95.3677 40.6003 94.2858 39.7168 92.8224 39.6531C83.0888 39.2303 73.3486 38.8085 63.6518 37.9611C62.4544 37.8566 61.2582 37.7456 60.0626 37.6269C59.4655 37.5677 58.8691 37.5068 58.2726 37.4439C58.0076 37.416 57.7427 37.3875 57.4782 37.3591C57.3128 37.3412 57.1473 37.3229 56.9818 37.305C56.8829 37.294 56.7834 37.283 56.6844 37.272C57.0148 37.3091 57.0813 37.3165 56.8829 37.294C54.5333 37.0221 52.1876 36.7287 49.8501 36.3907C45.4049 35.7479 40.9867 34.9638 36.6273 33.9941C32.2679 33.0243 28.0949 31.9033 23.9647 30.5332C23.4886 30.375 23.0147 30.2123 22.5403 30.0499C21.9807 29.8583 22.9422 30.1939 22.5821 30.0655C22.4441 30.0165 22.3056 29.9674 22.1676 29.9179C21.8922 29.8189 21.6173 29.7194 21.343 29.618C20.3606 29.2558 19.3859 28.8794 18.4206 28.4873C16.5713 27.7367 14.7478 26.9376 13.0041 26.0265C12.1624 25.5868 11.3395 25.1218 10.5451 24.6248C10.4945 24.5932 10.0503 24.3396 10.4208 24.5478C10.7446 24.7293 10.4467 24.5629 10.3664 24.5093C10.1779 24.3836 9.99151 24.2562 9.8068 24.1264C9.44397 23.8715 9.08939 23.6078 8.7458 23.3346C8.41047 23.0682 8.08502 22.793 7.77222 22.5078C7.63589 22.3836 7.5023 22.2575 7.37091 22.1291C7.28955 22.0498 7.20983 21.9696 7.13067 21.8889C6.764 21.5138 7.32418 22.1131 7.1719 21.9397C6.65955 21.3561 6.19008 20.7531 5.81571 20.0993C5.76623 20.0131 5.7283 19.9136 5.66893 19.8324C5.68433 19.8531 5.91301 20.3556 5.77063 20.0291C5.70686 19.8833 5.63924 19.7389 5.58097 19.5917C5.43529 19.2244 5.3204 18.8484 5.23959 18.467C5.23354 18.4385 5.19506 18.2368 5.1956 18.2368C5.21265 18.2359 5.27257 18.8361 5.23794 18.4674C5.22364 18.3124 5.20715 18.1579 5.20056 18.002C5.18571 17.6471 5.14338 17.1996 5.25992 16.8539C5.25662 16.864 5.14778 17.4436 5.22529 17.091C5.24178 17.0153 5.25662 16.9397 5.27421 16.864C5.31434 16.6934 5.36107 16.5242 5.41385 16.356C5.52709 15.9951 5.71016 15.6549 5.8333 15.2986C5.82506 15.322 5.56063 15.8108 5.73655 15.4898C5.77668 15.4174 5.81516 15.344 5.85639 15.272C5.94929 15.1079 6.0477 14.9465 6.15105 14.7865C6.37315 14.4426 6.61723 14.1083 6.88 13.7851C7.00699 13.6287 7.14222 13.4774 7.27361 13.3234C7.46602 13.0978 6.93387 13.6773 7.14387 13.4609C7.22468 13.3779 7.30385 13.294 7.38576 13.2115C7.68481 12.9102 7.9987 12.6191 8.32525 12.3389C8.65179 12.0588 9.00638 11.7754 9.36481 11.5095C9.52643 11.3893 9.69025 11.2715 9.85627 11.156C9.93983 11.0977 10.0239 11.04 10.1081 10.9831C10.1927 10.9258 10.2785 10.8689 10.3642 10.8125L10.096 10.9849C10.218 10.9813 10.5836 10.6828 10.6946 10.6167C10.898 10.4962 11.1036 10.3779 11.3114 10.2623C11.754 10.017 12.2064 9.78408 12.6676 9.56354C13.5747 9.12978 14.5153 8.74326 15.4729 8.39295C15.6411 8.33151 15.9699 8.14719 15.4196 8.409C15.5158 8.36315 15.6483 8.33013 15.7483 8.2962C15.9682 8.22192 16.1892 8.14948 16.4113 8.07841C16.9413 7.90922 17.4756 7.75057 18.0132 7.60064C19.0731 7.30581 20.1468 7.0463 21.2287 6.8152C23.3682 6.35852 25.5402 6.01189 27.7221 5.72852C28.2702 5.65745 28.8189 5.59005 29.3686 5.52632C29.4901 5.51211 29.6132 5.5011 29.7347 5.48414C29.6682 5.49331 29.1174 5.552 29.5896 5.50064C29.8941 5.46763 30.1992 5.43462 30.5038 5.40298C31.6637 5.28239 32.8248 5.17235 33.9875 5.07285C36.3535 4.87019 38.7251 4.71062 41.0994 4.5937C45.8095 4.36215 50.5318 4.29934 55.2485 4.40663C59.9383 4.513 64.6232 4.78765 69.2838 5.23379C69.8275 5.28606 70.3706 5.34016 70.9138 5.39702C71.2007 5.42728 71.4883 5.45754 71.7752 5.48918C71.8703 5.49972 72.2903 5.54512 71.9061 5.50339C71.4855 5.45754 72.1463 5.5309 72.2277 5.54053C73.3711 5.67258 74.5135 5.81518 75.6531 5.96833C77.9532 6.27736 80.245 6.62996 82.5259 7.02703C86.7968 7.76982 91.116 8.58506 95.222 9.83176C95.7041 9.97803 96.1818 10.1339 96.6568 10.2949C97.1158 10.4508 96.4996 10.2472 96.5007 10.2398C96.4985 10.2513 96.8454 10.3659 96.8861 10.3811C97.14 10.476 97.3929 10.5736 97.6436 10.675C98.5232 11.0299 99.3802 11.4256 100.196 11.8749C100.394 11.9845 100.591 12.0973 100.784 12.2133C100.835 12.244 100.967 12.349 101.038 12.3692C100.696 12.2724 100.672 12.1248 100.882 12.2688C101.282 12.543 101.674 12.8222 102.042 13.1266C102.36 13.3894 102.648 13.67 102.939 13.9529C103.156 14.1647 102.62 13.5907 102.814 13.8162C102.889 13.9024 102.966 13.9873 103.038 14.0744C103.183 14.2468 103.32 14.4233 103.45 14.6031C103.669 14.9043 103.868 15.2156 104.046 15.5352C104.136 15.6975 104.179 15.9534 103.99 15.4096C104.016 15.4852 104.065 15.5646 104.098 15.6375C104.185 15.8278 104.265 16.0203 104.337 16.2147C104.459 16.5439 104.56 16.8787 104.64 17.2166C104.682 17.394 104.763 18.0277 104.675 17.2968C104.699 17.4986 104.73 17.6994 104.746 17.9016C104.776 18.2666 104.782 18.6334 104.765 18.9988C104.757 19.1621 104.746 19.3253 104.729 19.4881C104.72 19.5697 104.708 19.6513 104.701 19.7329C104.657 20.1722 104.797 19.2368 104.718 19.643C104.572 20.3854 104.355 21.1121 104.046 21.8196C104.003 21.9191 103.958 22.0177 103.911 22.1163C103.818 22.3121 103.636 22.4111 103.969 22.0081C103.859 22.1415 103.796 22.3272 103.71 22.4739C103.493 22.8435 103.254 23.2034 102.994 23.5533C102.773 23.8499 102.538 24.1392 102.293 24.4212C102.235 24.4872 102.176 24.5519 102.118 24.6179C101.811 24.9687 102.436 24.2887 102.211 24.5166C102.054 24.6757 101.9 24.8362 101.739 24.9921C101.13 25.5813 100.473 26.1342 99.7777 26.6528C99.4704 26.8825 99.1554 27.1049 98.8343 27.3213C98.7332 27.3896 98.6304 27.4561 98.5287 27.524C98.2445 27.7129 99.0625 27.1943 98.621 27.4621C98.4077 27.5914 98.1972 27.723 97.9817 27.85C96.3836 28.7899 94.6695 29.591 92.8933 30.2709C92.691 30.3484 92.4882 30.4241 92.2842 30.4984C92.2259 30.5199 91.7383 30.7262 92.1347 30.5534C92.5289 30.3814 92.0434 30.5832 91.9819 30.6043C91.5135 30.7625 91.0413 30.9133 90.5663 31.0559C89.5911 31.3485 88.6026 31.6084 87.6038 31.8381C86.5059 32.0908 85.3966 32.3081 84.2795 32.4943C83.7193 32.5874 83.157 32.6726 82.5929 32.7506C82.3104 32.7896 82.0278 32.8267 81.7447 32.862C81.6188 32.8776 81.4929 32.8932 81.3665 32.9079C81.2719 32.9193 81.1774 32.9303 81.0828 32.9409C81.4297 32.9024 81.5034 32.8941 81.3032 32.9157C78.9828 33.1486 76.6585 33.2962 74.3216 33.3402C72.0847 33.3824 69.8467 33.3416 67.6121 33.2444C66.246 33.1848 64.9398 34.2884 65.0008 35.4223C65.0668 36.653 66.1487 37.5366 67.6121 37.6003L67.611 37.6003Z" fill="#C3EA4F"/>
</g>
</svg>
