<svg preserveAspectRatio="none" width="100%" height="100%" overflow="visible" style="display: block;" viewBox="0 0 26 32.2876" fill="none" xmlns="http://www.w3.org/2000/svg">
<g id="Group">
<path id="Vector" d="M26 32.2876V0.00761962H18.1555C18.1632 0.734054 18.1709 1.46049 18.1787 2.18692C18.1787 3.01382 18.2328 12.442 18.1168 13.663C17.7459 17.5734 16.1306 19.8532 13.1706 19.8532C11.3621 19.8532 10.0559 18.9336 9.36037 17.2566C8.54887 15.3091 6.57808 14.0958 4.47591 14.3045L0.603893 14.6909C1.02124 22.6198 4.56092 27.1253 10.4578 27.1253C14.0748 27.1253 16.5402 25.3324 17.6918 21.9629H17.9159C17.4445 24.5596 17.4058 25.2396 17.4058 27.0325V32.2876" fill="#083025"/>
<path id="Vector_2" d="M16.9964 2.33387C16.6255 1.52242 15.7367 0.772804 15.4353 0.556419C14.9716 0.309122 14.2142 0 13.2558 0C11.285 0.00772803 9.95571 1.36013 9.6002 1.73881C8.56457 1.19012 7.41301 1.00465 6.37738 1.45287C5.27992 1.92428 4.39114 2.9212 3.89651 4.15768C3.28595 4.38179 2.28124 4.86093 1.45428 5.93512C-0.416037 8.38491 -0.369666 12.6817 0.951921 13.5318C1.41564 13.8332 2.15758 13.7713 2.48991 13.3386C3.23185 12.3803 1.48519 10.3169 2.11121 8.14534C2.38944 7.18707 3.03091 6.5611 3.49462 6.19788V6.3138C3.55645 8.28444 4.90122 10.5178 6.82564 10.1392C7.30481 10.0464 7.75307 9.7605 8.00038 9.25818C8.27088 8.70949 8.22451 8.06806 8.14723 7.50391C7.98493 6.48381 7.46711 5.53327 6.76381 4.89184C6.41603 4.58272 6.02187 4.34315 5.62771 4.25041C5.77455 4.03403 5.91367 3.84856 6.10688 3.65536C6.93384 2.85164 7.86127 2.85165 8.81188 3.27669C8.3559 4.91503 8.95873 8.04487 10.9218 7.6662C11.911 7.473 12.2897 6.42972 12.2202 5.38644C12.1584 4.31997 11.7256 3.43898 11.0223 2.75118C10.9991 2.728 10.9604 2.70481 10.9372 2.68163C11.8801 1.97838 12.5912 1.89337 13.0858 1.97065C14.8015 2.22567 15.7521 4.65228 16.695 4.31997C16.9114 4.24269 17.0505 4.04949 17.0815 4.00312C17.4756 3.43897 17.1046 2.56571 16.9964 2.32614V2.33387ZM6.6247 7.61983C6.64788 7.79758 6.68653 7.95987 6.53968 8.02942C6.37738 8.09897 6.14553 8.00624 6.00641 7.93669C5.57361 7.71257 5.28765 7.21025 5.14081 6.71566C5.04034 6.35244 4.99397 5.98922 5.0558 5.626C5.87502 5.8733 6.49331 6.69247 6.61697 7.61983H6.6247ZM10.5895 5.64919H10.5663L10.5431 5.67237H10.5199V5.64919H10.4967V5.626C10.4967 5.626 10.3962 5.44826 10.3731 5.40189C10.1876 5.01549 10.0871 4.59045 10.1489 4.13449L10.1876 4.18087C10.5354 4.61363 10.6436 5.13141 10.5972 5.64919H10.574H10.5895Z" fill="#083025"/>
</g>
</svg>
