<svg preserveAspectRatio="none" width="100%" height="100%" overflow="visible" style="display: block;" viewBox="0 0 600.781 639" fill="none" xmlns="http://www.w3.org/2000/svg">
<g id="Group 34265">
<path id="Vector" d="M63.2011 172.883C47.9686 194.159 41.8626 227.696 40.7544 238.517C41.2273 253.915 44.4114 277.681 58.3911 302.042C87.3365 352.026 141.134 366.072 155.954 369.58C157.102 403.916 169.182 435.896 195.693 455.678C223.695 476.692 262.023 484.73 300.696 479.251C315.304 491.499 342.15 510.043 381.542 515.381C471.15 527.158 579.789 463.247 582.137 417.242C583.041 401.054 570.645 383.096 554.787 380.967C519.584 376.098 492.568 450.622 428.189 466.414C399.751 473.332 374.468 466.165 358.463 459.68L361.412 457.988C410.646 427.645 447.849 360.854 410.143 317.465C400.794 306.639 386.98 299.419 370.593 300.466C352.688 301.601 337.046 312.144 323.82 322.345C300.235 341.364 283.606 368.404 277.547 395.647C274.756 409 274.411 422.517 277.801 433.891C270.154 433.317 263.406 432.489 255.672 430.398C223.162 421.111 209.633 397.536 206.579 367.166C254.912 354.838 325.745 293.819 287.476 249.447C268.13 227.122 236.063 232.727 210.535 249.727C184.305 266.868 168.205 290.732 160.966 318.652C160.715 319.579 160.688 320.9 160.437 321.828C128.791 308.128 116.256 291.295 111.007 277.593C92.4668 230.256 140.335 170.664 118.127 151.548C113.004 147.175 106.059 146.46 104.429 146.351C84.3264 144.568 67.521 166.747 63.0045 172.995L63.2011 172.883ZM348.979 359.355C353.163 356.17 356.728 352.819 360.64 355.536C364.777 358.646 365.8 365.894 366.06 370.445C366.672 384.719 358.063 399.322 347.622 410.275C339.847 418.132 331.283 424.614 321.14 428.345C315.481 403.91 327.303 376.234 349.092 359.551L348.979 359.355ZM241.008 287.343L241.347 287.932L242.275 288.183L242.613 288.773L242.023 289.111L242.361 289.7L241.771 290.039C241.771 290.039 238.715 295.188 237.874 296.454C230.749 306.811 221.401 315.57 208.899 320.655L209.515 318.996C215.452 303.837 227.046 293.527 240.896 287.147L241.234 287.736L241.008 287.343Z" fill="#C3EA4F" fill-opacity="0.6"/>
<path id="Arros&#195;&#169;es &#195;&#160; la pluie bretonne" d="M188.584 288.621C188.639 288.494 188.716 288.405 188.814 288.354C188.911 288.303 189.015 288.301 189.126 288.349L189.295 288.48L203.905 301.828C204.117 302.033 204.164 302.27 204.047 302.539L202.391 306.332C202.274 306.601 202.068 306.727 201.774 306.712L182.052 305.076L181.841 305.041C181.731 304.993 181.661 304.915 181.632 304.809C181.603 304.702 181.617 304.586 181.672 304.459L183.214 300.926C183.331 300.658 183.541 300.542 183.844 300.581L186.607 300.911C186.911 300.95 187.121 300.834 187.238 300.566L189.515 295.35C189.632 295.081 189.573 294.848 189.339 294.652L187.218 292.851C186.984 292.655 186.925 292.422 187.042 292.154L188.584 288.621ZM191.462 300.913C191.393 301.071 191.392 301.202 191.459 301.307C191.535 301.434 191.663 301.509 191.841 301.53L197.346 302.239C197.448 302.265 197.544 302.26 197.635 302.224C197.726 302.189 197.785 302.139 197.813 302.076C197.868 301.95 197.802 301.799 197.615 301.623L193.352 298.069C193.312 298.032 193.252 297.997 193.173 297.962C192.936 297.859 192.758 297.941 192.641 298.21L191.462 300.913ZM180.467 307.841C180.572 307.513 180.789 307.401 181.117 307.506L194.101 311.662C194.43 311.767 194.542 311.984 194.437 312.313L193.427 315.466C193.322 315.795 193.105 315.906 192.777 315.801L192.629 315.754C192.382 315.675 192.238 315.701 192.196 315.833C192.159 315.948 192.188 316.084 192.283 316.241C192.562 316.783 192.705 317.327 192.711 317.872C192.718 318.417 192.608 319.043 192.382 319.749C192.277 320.078 192.06 320.19 191.732 320.084L188.775 319.138C188.447 319.033 188.335 318.816 188.44 318.488L188.535 318.192C188.871 317.141 188.877 316.273 188.553 315.59C188.323 315.118 187.939 314.706 187.4 314.352C186.862 313.999 186.124 313.672 185.188 313.372L179.792 311.645C179.464 311.54 179.352 311.323 179.457 310.995L180.467 307.841ZM177.178 318.61C177.261 318.275 177.47 318.149 177.804 318.232L191.036 321.519C191.37 321.602 191.496 321.811 191.413 322.146L190.615 325.359C190.532 325.694 190.323 325.82 189.988 325.737L189.837 325.699C189.586 325.637 189.444 325.673 189.411 325.807C189.382 325.924 189.42 326.058 189.524 326.208C189.839 326.73 190.017 327.263 190.06 327.807C190.103 328.351 190.035 328.983 189.856 329.702C189.773 330.037 189.564 330.163 189.229 330.08L186.216 329.331C185.882 329.248 185.756 329.039 185.839 328.704L185.914 328.403C186.18 327.332 186.128 326.466 185.759 325.806C185.499 325.35 185.089 324.964 184.528 324.647C183.967 324.33 183.209 324.053 182.255 323.816L176.757 322.45C176.422 322.367 176.296 322.158 176.379 321.823L177.178 318.61ZM173.271 336.233C173.51 334.734 174.036 333.456 174.851 332.398C175.663 331.357 176.699 330.605 177.96 330.142C179.219 329.696 180.606 329.594 182.122 329.835C183.586 330.068 184.831 330.589 185.855 331.399C186.893 332.227 187.628 333.261 188.059 334.5C188.505 335.758 188.609 337.137 188.37 338.636C188.132 340.135 187.607 341.404 186.795 342.445C185.98 343.503 184.961 344.258 183.737 344.709C182.509 345.178 181.164 345.295 179.699 345.062C178.183 344.821 176.896 344.293 175.838 343.479C174.78 342.664 174.028 341.628 173.582 340.369C173.134 339.128 173.03 337.749 173.271 336.233ZM176.95 336.819C176.796 337.789 177.031 338.613 177.657 339.289C178.3 339.967 179.218 340.401 180.41 340.591C181.551 340.773 182.517 340.63 183.308 340.162C184.095 339.711 184.565 339.008 184.717 338.054C184.869 337.101 184.643 336.27 184.039 335.563C183.433 334.873 182.56 334.437 181.418 334.255C180.209 334.063 179.201 334.199 178.393 334.664C177.586 335.13 177.105 335.848 176.95 336.819ZM171.43 353.78C171.511 352.091 171.964 350.577 172.788 349.235C173.629 347.911 174.893 347.118 176.581 346.854L176.737 346.835C176.858 346.841 176.95 346.889 177.015 346.978C177.096 347.086 177.134 347.208 177.127 347.346L176.973 350.55C176.959 350.826 176.812 351.017 176.53 351.125C175.966 351.374 175.525 351.75 175.207 352.252C174.907 352.756 174.742 353.3 174.714 353.886C174.685 354.489 174.782 354.986 175.005 355.376C175.227 355.784 175.536 355.998 175.932 356.017C176.38 356.038 176.719 355.813 176.949 355.341C177.179 354.868 177.423 354.112 177.68 353.071C177.959 351.927 178.247 350.983 178.542 350.237C178.854 349.493 179.333 348.86 179.98 348.338C180.627 347.817 181.484 347.582 182.552 347.633C184.068 347.707 185.161 348.32 185.83 349.475C186.517 350.63 186.82 352.052 186.738 353.74C186.656 355.446 186.183 356.856 185.317 357.971C184.468 359.104 183.303 359.825 181.82 360.134L181.664 360.152C181.388 360.139 181.258 359.968 181.274 359.641L181.424 356.54C181.437 356.265 181.584 356.073 181.866 355.966C182.393 355.767 182.788 355.449 183.051 355.013C183.314 354.577 183.458 354.092 183.484 353.558C183.51 353.024 183.427 352.588 183.236 352.251C183.044 351.931 182.785 351.763 182.457 351.747C182.01 351.725 181.671 351.951 181.441 352.423C181.227 352.914 181 353.688 180.759 354.747C180.496 355.909 180.216 356.871 179.92 357.633C179.625 358.396 179.162 359.039 178.533 359.561C177.902 360.1 177.062 360.345 176.011 360.294C175.046 360.248 174.206 359.948 173.49 359.396C172.774 358.86 172.231 358.109 171.864 357.142C171.513 356.175 171.368 355.054 171.43 353.78ZM171.724 370.652C171.612 369.138 171.832 367.773 172.382 366.557C172.95 365.356 173.779 364.396 174.867 363.676C175.957 362.973 177.224 362.568 178.669 362.462C179.976 362.365 181.234 362.541 182.443 362.988C183.67 363.45 184.695 364.214 185.517 365.277C186.357 366.356 186.839 367.73 186.962 369.399C187.062 370.758 186.887 372.024 186.438 373.199C185.99 374.39 185.206 375.373 184.087 376.148C182.97 376.939 181.516 377.401 179.728 377.532L179.496 377.55C179.152 377.575 178.967 377.416 178.941 377.072L178.245 367.629C178.231 367.44 178.17 367.306 178.06 367.228C177.952 367.166 177.814 367.168 177.645 367.232C177.156 367.389 176.732 367.628 176.375 367.948C175.679 368.588 175.372 369.475 175.456 370.61C175.497 371.161 175.644 371.634 175.898 372.03C176.169 372.425 176.512 372.729 176.925 372.94C177.177 373.077 177.312 373.266 177.33 373.507L177.575 376.835C177.589 377.024 177.556 377.165 177.477 377.257C177.397 377.35 177.296 377.383 177.173 377.358C175.674 376.967 174.425 376.211 173.426 375.092C172.428 373.989 171.861 372.509 171.724 370.652ZM181.681 372.356C181.691 372.494 181.733 372.603 181.809 372.684C181.885 372.782 181.983 372.827 182.104 372.818L182.306 372.751C182.603 372.556 182.831 372.366 182.991 372.182C183.517 371.572 183.743 370.777 183.671 369.797C183.599 368.817 183.258 368.064 182.648 367.538C182.408 367.331 182.146 367.177 181.862 367.077C181.809 367.064 181.748 367.059 181.68 367.064C181.559 367.073 181.468 367.123 181.405 367.214C181.343 367.305 181.317 367.42 181.327 367.557L181.681 372.356ZM187.9 368.396C187.889 368.258 187.907 368.144 187.952 368.055C188.016 367.981 188.091 367.941 188.177 367.934C188.263 367.928 188.369 367.963 188.496 368.041L191.472 370.052C191.69 370.192 191.808 370.39 191.827 370.648L192.038 373.512C192.048 373.65 192.031 373.763 191.985 373.853C191.94 373.943 191.875 373.991 191.789 373.997C191.685 374.005 191.56 373.945 191.412 373.818L188.348 370.957C188.163 370.797 188.062 370.597 188.044 370.357L187.9 368.396ZM174.506 388.737C174.16 387.259 174.164 385.876 174.518 384.589C174.893 383.314 175.562 382.237 176.525 381.356C177.492 380.492 178.68 379.895 180.091 379.565C181.367 379.266 182.637 379.244 183.901 379.497C185.186 379.763 186.317 380.358 187.294 381.28C188.292 382.215 188.982 383.498 189.363 385.126C189.674 386.453 189.698 387.731 189.437 388.962C189.18 390.209 188.559 391.301 187.574 392.24C186.594 393.196 185.23 393.878 183.484 394.287L183.257 394.34C182.921 394.419 182.714 394.29 182.635 393.954L180.477 384.735C180.434 384.551 180.352 384.428 180.232 384.368C180.116 384.324 179.979 384.347 179.823 384.437C179.364 384.668 178.983 384.97 178.68 385.342C178.092 386.082 177.927 387.006 178.186 388.114C178.312 388.652 178.531 389.096 178.844 389.448C179.173 389.796 179.559 390.043 180 390.187C180.27 390.283 180.433 390.449 180.488 390.684L181.249 393.933C181.292 394.118 181.281 394.262 181.217 394.366C181.153 394.47 181.058 394.518 180.933 394.512C179.391 394.359 178.04 393.808 176.879 392.857C175.721 391.924 174.931 390.55 174.506 388.737ZM184.607 388.87C184.638 389.004 184.697 389.106 184.784 389.174C184.875 389.259 184.979 389.288 185.097 389.26L185.286 389.163C185.549 388.924 185.745 388.701 185.874 388.494C186.298 387.81 186.399 386.989 186.174 386.032C185.95 385.075 185.497 384.384 184.813 383.96C184.543 383.793 184.26 383.682 183.964 383.627C183.91 383.622 183.849 383.627 183.782 383.643C183.665 383.67 183.582 383.734 183.534 383.834C183.487 383.933 183.479 384.05 183.51 384.185L184.607 388.87ZM180.116 405.855C179.449 404.302 179.191 402.742 179.344 401.175C179.519 399.617 180.307 398.349 181.708 397.372L181.84 397.287C181.951 397.239 182.055 397.241 182.152 397.293C182.273 397.354 182.36 397.448 182.414 397.575L183.681 400.522C183.79 400.776 183.741 401.012 183.535 401.232C183.137 401.704 182.906 402.235 182.841 402.826C182.791 403.41 182.882 403.972 183.114 404.511C183.352 405.065 183.657 405.469 184.029 405.722C184.407 405.992 184.779 406.048 185.143 405.891C185.555 405.714 185.761 405.363 185.76 404.838C185.76 404.312 185.647 403.525 185.422 402.477C185.172 401.327 185.016 400.352 184.954 399.553C184.908 398.747 185.061 397.968 185.413 397.215C185.766 396.463 186.433 395.876 187.416 395.454C188.81 394.855 190.061 394.927 191.17 395.671C192.293 396.408 193.189 397.553 193.856 399.106C194.53 400.675 194.723 402.15 194.435 403.532C194.169 404.922 193.437 406.081 192.24 407.009L192.108 407.094C191.854 407.203 191.663 407.107 191.534 406.806L190.308 403.953C190.199 403.7 190.247 403.463 190.453 403.243C190.84 402.833 191.056 402.374 191.101 401.867C191.146 401.36 191.062 400.86 190.851 400.369C190.64 399.878 190.375 399.523 190.055 399.303C189.743 399.1 189.436 399.063 189.135 399.192C188.723 399.369 188.517 399.72 188.518 400.246C188.541 400.78 188.676 401.576 188.924 402.633C189.197 403.793 189.368 404.78 189.437 405.595C189.505 406.41 189.371 407.19 189.035 407.936C188.705 408.697 188.056 409.285 187.09 409.701C186.203 410.082 185.316 410.181 184.43 409.999C183.552 409.832 182.735 409.395 181.98 408.687C181.241 407.972 180.62 407.028 180.116 405.855ZM191.418 424.996C190.538 423.911 190.105 422.774 190.118 421.586C190.156 420.401 190.724 419.363 191.823 418.472C193.028 417.494 194.331 417.226 195.732 417.666C196.253 417.843 196.755 418.092 197.236 418.412C197.729 418.745 198.257 419.149 198.82 419.625L201.368 421.822C201.493 421.921 201.61 421.97 201.721 421.969C201.855 421.971 201.984 421.911 202.107 421.789C202.444 421.383 202.638 420.992 202.689 420.617C202.751 420.146 202.575 419.655 202.162 419.146C201.88 418.798 201.512 418.563 201.059 418.443C200.619 418.311 200.164 418.325 199.693 418.484C199.4 418.588 199.167 418.533 198.993 418.319L196.924 415.767C196.804 415.62 196.757 415.48 196.783 415.348C196.82 415.229 196.917 415.129 197.072 415.047C198.482 414.348 199.868 414.223 201.231 414.672C202.595 415.121 203.754 415.934 204.71 417.113C205.275 417.81 205.708 418.535 206.009 419.29C206.322 420.059 206.47 420.816 206.453 421.562C206.436 422.308 206.255 422.988 205.909 423.602C205.563 424.216 205.132 424.765 204.615 425.251C204.109 425.75 203.401 426.369 202.49 427.107L197.487 431.165C197.219 431.382 196.977 431.357 196.759 431.089L194.674 428.517C194.456 428.249 194.482 428.007 194.75 427.789L194.93 427.643C195.172 427.447 195.254 427.303 195.178 427.209C195.124 427.142 195.028 427.12 194.891 427.142C194.562 427.12 194.284 427.079 194.058 427.018C193.189 426.768 192.309 426.094 191.418 424.996ZM194.768 423.911C195.094 424.313 195.519 424.645 196.043 424.908C196.533 425.155 196.99 425.24 197.415 425.162C197.864 425.086 198.365 424.868 198.917 424.509L198.958 424.477C199.092 424.368 199.153 424.252 199.141 424.128C199.143 423.993 199.076 423.87 198.941 423.758L197.316 422.411C196.944 422.09 196.632 421.855 196.378 421.706C196.134 421.57 195.891 421.49 195.649 421.464C195.285 421.427 194.962 421.522 194.681 421.75C194.346 422.021 194.195 422.355 194.227 422.751C194.273 423.136 194.453 423.522 194.768 423.911ZM204.891 415.734C204.739 415.547 204.675 415.332 204.701 415.089L204.972 410.906C204.992 410.712 205.042 410.582 205.123 410.517C205.19 410.462 205.27 410.452 205.365 410.487C205.459 410.521 205.55 410.592 205.637 410.699L207.446 412.929C207.609 413.13 207.659 413.356 207.596 413.607L206.807 417.111C206.768 417.254 206.714 417.353 206.647 417.407C206.58 417.462 206.493 417.477 206.385 417.453C206.301 417.432 206.216 417.368 206.129 417.261L204.891 415.734ZM208.175 441.489C207.327 440.837 206.823 440.135 206.662 439.381C206.513 438.613 206.722 437.86 207.289 437.122L217.219 424.198C217.429 423.925 217.671 423.893 217.944 424.103L220.57 426.121C220.844 426.331 220.875 426.573 220.665 426.846L211.649 438.58C211.282 439.059 211.323 439.471 211.775 439.818L212.226 440.165C212.5 440.375 212.531 440.617 212.321 440.89L210.808 442.86C210.598 443.133 210.356 443.165 210.082 442.955L208.175 441.489ZM216.805 447.459C215.595 446.761 214.783 445.855 214.37 444.741C213.981 443.621 214.14 442.448 214.846 441.223C215.622 439.878 216.742 439.16 218.208 439.07C218.758 439.048 219.315 439.101 219.879 439.227C220.458 439.362 221.096 439.551 221.792 439.793L224.958 440.932C225.11 440.979 225.237 440.983 225.34 440.943C225.466 440.896 225.565 440.794 225.636 440.636C225.805 440.136 225.846 439.702 225.76 439.334C225.649 438.871 225.309 438.476 224.741 438.149C224.353 437.925 223.925 437.838 223.459 437.887C223.001 437.922 222.581 438.098 222.199 438.415C221.963 438.617 221.725 438.649 221.486 438.511L218.64 436.87C218.476 436.776 218.382 436.662 218.359 436.529C218.351 436.405 218.405 436.277 218.521 436.145C219.586 434.987 220.836 434.374 222.269 434.305C223.703 434.235 225.077 434.58 226.392 435.338C227.169 435.786 227.833 436.308 228.385 436.905C228.951 437.511 229.361 438.165 229.612 438.867C229.864 439.57 229.939 440.27 229.835 440.967C229.732 441.664 229.526 442.331 229.218 442.97C228.924 443.617 228.485 444.448 227.899 445.464L224.681 451.045C224.509 451.343 224.273 451.407 223.975 451.234L221.106 449.58C220.807 449.408 220.744 449.172 220.916 448.874L221.033 448.672C221.188 448.403 221.213 448.238 221.108 448.178C221.034 448.135 220.936 448.148 220.816 448.219C220.501 448.316 220.227 448.377 219.994 448.401C219.093 448.479 218.03 448.165 216.805 447.459ZM219.544 445.246C219.992 445.504 220.508 445.662 221.092 445.72C221.637 445.776 222.094 445.691 222.463 445.465C222.856 445.234 223.245 444.851 223.633 444.318L223.658 444.273C223.745 444.124 223.76 443.993 223.705 443.882C223.658 443.756 223.552 443.664 223.385 443.608L221.385 442.933C220.924 442.766 220.548 442.659 220.257 442.611C219.981 442.571 219.726 442.583 219.49 442.646C219.137 442.741 218.87 442.945 218.689 443.259C218.473 443.633 218.452 443.998 218.624 444.356C218.804 444.699 219.111 444.996 219.544 445.246ZM247.215 444.293C248.397 444.673 249.348 445.324 250.066 446.243C250.79 447.147 251.226 448.239 251.376 449.519C251.547 450.788 251.405 452.128 250.95 453.54C250.501 454.936 249.834 456.107 248.949 457.054C248.086 457.99 247.094 458.622 245.974 458.949C244.859 459.261 243.711 459.226 242.529 458.846C241.888 458.639 241.351 458.367 240.917 458.027C240.477 457.705 240.124 457.283 239.857 456.762C239.784 456.594 239.69 456.491 239.575 456.454C239.444 456.412 239.339 456.514 239.26 456.76L237.658 461.734C237.552 462.062 237.335 462.174 237.006 462.068L233.855 461.053C233.526 460.947 233.415 460.73 233.521 460.402L239.254 442.598C239.36 442.27 239.577 442.159 239.905 442.265L243.057 443.28C243.386 443.385 243.497 443.602 243.391 443.931L243.304 444.202C243.24 444.399 243.266 444.516 243.381 444.553C243.463 444.579 243.613 444.537 243.83 444.425C244.351 444.158 244.884 444.022 245.429 444.016C245.98 443.994 246.575 444.086 247.215 444.293ZM244.924 447.441C244.005 447.145 243.155 447.252 242.375 447.762C241.595 448.271 241.022 449.093 240.657 450.225C240.298 451.342 240.286 452.334 240.622 453.204C240.958 454.073 241.586 454.655 242.505 454.952C243.425 455.248 244.274 455.141 245.055 454.631C245.84 454.105 246.41 453.292 246.764 452.192C247.124 451.076 247.135 450.083 246.799 449.214C246.468 448.328 245.843 447.737 244.924 447.441ZM255.026 462.038C253.982 461.807 253.228 461.383 252.764 460.768C252.303 460.136 252.174 459.365 252.376 458.456L255.904 442.545C255.979 442.208 256.184 442.077 256.521 442.152L259.754 442.868C260.091 442.943 260.222 443.149 260.147 443.486L256.943 457.932C256.813 458.521 257.025 458.878 257.581 459.001L258.136 459.124C258.473 459.199 258.604 459.404 258.53 459.741L257.992 462.166C257.917 462.503 257.712 462.634 257.375 462.559L255.026 462.038ZM266.054 464.02C263.672 463.753 262.197 462.738 261.631 460.973C261.464 460.451 261.368 459.911 261.344 459.353C261.339 458.78 261.404 457.894 261.538 456.694L262.393 449.058C262.431 448.715 262.622 448.563 262.965 448.602L266.255 448.97C266.598 449.009 266.75 449.199 266.712 449.542L265.851 457.229C265.771 457.949 265.75 458.519 265.79 458.94C265.847 459.363 265.973 459.707 266.169 459.972C266.471 460.37 266.982 460.61 267.702 460.69C268.594 460.79 269.264 460.613 269.714 460.16C269.931 459.925 270.104 459.623 270.232 459.255C270.362 458.871 270.461 458.37 270.53 457.753L271.391 450.066C271.429 449.723 271.62 449.571 271.963 449.609L275.254 449.978C275.596 450.016 275.749 450.207 275.71 450.55L274.193 464.098C274.155 464.441 273.964 464.593 273.621 464.555L270.33 464.186C269.988 464.148 269.835 463.957 269.874 463.615L269.888 463.486C269.921 463.195 269.86 463.04 269.706 463.023C269.62 463.013 269.519 463.063 269.403 463.171C268.963 463.539 268.466 463.787 267.914 463.916C267.377 464.064 266.757 464.098 266.054 464.02ZM278.617 464.815C278.272 464.817 278.099 464.646 278.096 464.301L278.006 450.668C278.004 450.323 278.175 450.149 278.52 450.147L281.831 450.125C282.176 450.123 282.35 450.294 282.352 450.639L282.442 464.272C282.445 464.617 282.273 464.791 281.928 464.793L278.617 464.815ZM280.169 449.127C279.479 449.132 278.891 448.937 278.406 448.544C277.938 448.133 277.701 447.591 277.697 446.919C277.692 446.246 277.922 445.701 278.384 445.284C278.865 444.867 279.45 444.657 280.139 444.652C280.829 444.647 281.408 444.851 281.877 445.261C282.362 445.672 282.607 446.214 282.612 446.886C282.616 447.559 282.378 448.104 281.898 448.521C281.435 448.921 280.859 449.123 280.169 449.127ZM292.984 464.475C291.47 464.581 290.106 464.356 288.892 463.801C287.693 463.228 286.736 462.396 286.02 461.305C285.322 460.213 284.922 458.944 284.821 457.499C284.73 456.191 284.91 454.934 285.362 453.727C285.83 452.501 286.597 451.479 287.664 450.662C288.746 449.825 290.122 449.349 291.791 449.233C293.15 449.138 294.416 449.317 295.589 449.771C296.779 450.224 297.758 451.012 298.528 452.134C299.315 453.254 299.771 454.709 299.896 456.499L299.912 456.731C299.936 457.075 299.776 457.259 299.432 457.283L289.987 457.942C289.798 457.955 289.664 458.017 289.585 458.126C289.523 458.234 289.524 458.372 289.588 458.54C289.743 459.031 289.98 459.455 290.299 459.813C290.936 460.512 291.822 460.822 292.957 460.743C293.508 460.705 293.982 460.559 294.379 460.307C294.775 460.037 295.08 459.696 295.293 459.283C295.431 459.032 295.62 458.897 295.861 458.881L299.19 458.648C299.38 458.635 299.52 458.669 299.612 458.749C299.704 458.829 299.737 458.93 299.711 459.053C299.314 460.55 298.554 461.796 297.431 462.791C296.324 463.784 294.842 464.346 292.984 464.475ZM294.728 454.525C294.865 454.516 294.975 454.473 295.056 454.399C295.154 454.323 295.199 454.224 295.191 454.104L295.125 453.901C294.931 453.603 294.742 453.375 294.558 453.215C293.951 452.686 293.157 452.457 292.176 452.525C291.196 452.593 290.441 452.931 289.913 453.539C289.705 453.778 289.55 454.039 289.449 454.323C289.435 454.376 289.431 454.437 289.436 454.506C289.444 454.626 289.494 454.718 289.585 454.78C289.676 454.843 289.79 454.87 289.927 454.86L294.728 454.525ZM318.743 460.613C318.087 460.763 317.486 460.804 316.939 460.734C316.397 460.681 315.877 460.499 315.381 460.188C315.175 460.059 315.03 460.003 314.945 460.023C314.828 460.049 314.792 460.164 314.838 460.366L314.902 460.643C314.979 460.979 314.849 461.186 314.513 461.263L311.285 462.001C310.949 462.078 310.742 461.949 310.665 461.612L306.493 443.38C306.416 443.044 306.546 442.837 306.882 442.76L310.11 442.021C310.446 441.945 310.653 442.074 310.73 442.41L311.895 447.504C311.953 447.757 312.049 447.867 312.184 447.837C312.301 447.81 312.404 447.715 312.491 447.554C312.802 447.058 313.19 446.669 313.656 446.385C314.118 446.085 314.677 445.859 315.333 445.709C316.543 445.432 317.692 445.506 318.78 445.929C319.864 446.336 320.797 447.051 321.58 448.075C322.375 449.078 322.937 450.295 323.264 451.724C323.595 453.169 323.622 454.525 323.345 455.792C323.082 457.037 322.553 458.087 321.757 458.942C320.958 459.779 319.953 460.336 318.743 460.613ZM316.733 457.278C317.674 457.063 318.35 456.537 318.76 455.7C319.166 454.846 319.238 453.848 318.977 452.704C318.719 451.578 318.224 450.727 317.49 450.152C316.753 449.56 315.914 449.371 314.973 449.587C314.031 449.802 313.355 450.328 312.945 451.165C312.535 452.002 312.461 452.992 312.723 454.135C312.988 455.295 313.487 456.163 314.221 456.738C314.954 457.314 315.791 457.494 316.733 457.278ZM328.631 457.754C328.305 457.867 328.085 457.761 327.972 457.435L323.497 444.557C323.384 444.232 323.49 444.012 323.816 443.899L326.943 442.812C327.269 442.699 327.489 442.805 327.602 443.131L327.653 443.277C327.738 443.522 327.845 443.621 327.976 443.576C328.09 443.536 328.181 443.432 328.25 443.262C328.516 442.713 328.865 442.272 329.297 441.939C329.729 441.606 330.295 441.318 330.996 441.075C331.321 440.962 331.541 441.068 331.654 441.394L332.673 444.326C332.787 444.652 332.68 444.871 332.354 444.985L332.061 445.087C331.019 445.449 330.322 445.965 329.97 446.635C329.731 447.102 329.631 447.656 329.672 448.3C329.713 448.943 329.895 449.728 330.218 450.657L332.077 456.009C332.191 456.334 332.084 456.554 331.759 456.667L328.631 457.754ZM345.7 450.94C344.34 451.614 342.993 451.926 341.659 451.875C340.332 451.8 339.13 451.395 338.053 450.659C336.991 449.914 336.139 448.893 335.496 447.595C334.914 446.421 334.602 445.19 334.56 443.901C334.526 442.59 334.847 441.353 335.522 440.191C336.205 439.006 337.296 438.042 338.795 437.299C340.015 436.694 341.254 436.378 342.512 436.352C343.784 436.317 344.99 436.673 346.129 437.417C347.283 438.154 348.259 439.326 349.055 440.933L349.159 441.142C349.312 441.451 349.234 441.682 348.925 441.835L340.441 446.039C340.271 446.124 340.171 446.231 340.139 446.362C340.123 446.486 340.177 446.613 340.3 446.745C340.63 447.139 341.011 447.441 341.442 447.651C342.297 448.055 343.234 448.004 344.254 447.499C344.748 447.254 345.131 446.939 345.403 446.554C345.666 446.154 345.818 445.723 345.858 445.26C345.89 444.975 346.014 444.779 346.231 444.671L349.221 443.19C349.391 443.105 349.534 443.083 349.649 443.122C349.765 443.161 349.834 443.242 349.857 443.365C350.059 444.901 349.831 446.342 349.17 447.69C348.525 449.03 347.368 450.113 345.7 450.94ZM343.525 441.075C343.648 441.014 343.733 440.933 343.78 440.833C343.842 440.726 343.846 440.618 343.793 440.509L343.654 440.347C343.362 440.145 343.1 440.006 342.869 439.928C342.107 439.671 341.285 439.76 340.404 440.197C339.523 440.633 338.954 441.233 338.697 441.995C338.596 442.296 338.552 442.597 338.566 442.897C338.574 442.951 338.593 443.009 338.624 443.071C338.677 443.179 338.758 443.245 338.866 443.269C338.974 443.292 339.09 443.273 339.213 443.212L343.525 441.075ZM359.059 442.961C358.175 443.563 357.343 443.826 356.562 443.752C355.787 443.654 355.137 443.22 354.613 442.45L350.205 435.969C350.011 435.683 349.771 435.638 349.486 435.832L348.673 436.385C348.388 436.579 348.148 436.533 347.954 436.248L346.63 434.301C346.436 434.016 346.482 433.776 346.767 433.582L347.58 433.03C347.865 432.836 347.911 432.596 347.717 432.311L345.447 428.974C345.253 428.689 345.299 428.449 345.584 428.255L348.322 426.393C348.607 426.199 348.847 426.244 349.041 426.53L351.311 429.867C351.505 430.152 351.744 430.197 352.029 430.003L353.27 429.16C353.555 428.966 353.795 429.011 353.989 429.296L355.313 431.243C355.507 431.528 355.461 431.768 355.176 431.962L353.935 432.806C353.65 433 353.604 433.239 353.798 433.524L357.377 438.787C357.707 439.271 358.114 439.349 358.599 439.019L359.519 438.394C359.804 438.2 360.044 438.245 360.238 438.53L361.635 440.584C361.829 440.869 361.783 441.109 361.498 441.303L359.059 442.961ZM370.179 434.121C369.063 435.15 367.858 435.828 366.563 436.153C365.281 436.468 364.002 436.416 362.725 435.998C361.461 435.568 360.309 434.789 359.268 433.661C358.263 432.57 357.609 431.39 357.306 430.121C357.005 428.827 357.068 427.56 357.497 426.321C357.927 425.057 358.699 423.91 359.815 422.881C360.931 421.852 362.13 421.181 363.412 420.867C364.707 420.541 365.974 420.58 367.215 420.984C368.469 421.377 369.598 422.119 370.603 423.209C371.644 424.337 372.327 425.549 372.653 426.844C372.979 428.138 372.927 429.418 372.497 430.682C372.08 431.934 371.308 433.081 370.179 434.121ZM367.654 431.383C368.377 430.716 368.702 429.924 368.629 429.006C368.545 428.075 368.093 427.165 367.275 426.278C366.492 425.428 365.645 424.942 364.735 424.82C363.837 424.686 363.033 424.946 362.323 425.601C361.613 426.256 361.276 427.048 361.311 427.977C361.359 428.894 361.775 429.777 362.558 430.627C363.389 431.527 364.265 432.045 365.187 432.18C366.109 432.315 366.931 432.049 367.654 431.383ZM378.601 425.228C378.395 425.504 378.153 425.538 377.877 425.332L366.964 417.161C366.687 416.954 366.653 416.713 366.859 416.437L368.844 413.786C369.051 413.51 369.292 413.475 369.568 413.682L369.693 413.775C369.9 413.93 370.044 413.952 370.127 413.842C370.2 413.745 370.217 413.607 370.179 413.428C370.095 412.848 370.14 412.3 370.312 411.782C370.47 411.254 370.751 410.721 371.154 410.183C372.601 408.25 374.223 407.493 376.02 407.913C376.631 408.047 377.187 408.269 377.687 408.579C378.184 408.865 378.874 409.338 379.758 410L385.908 414.605C386.184 414.811 386.219 415.053 386.012 415.329L384.028 417.979C383.821 418.256 383.58 418.29 383.304 418.084L377.112 413.448C376.532 413.014 376.045 412.714 375.652 412.549C375.269 412.37 374.913 412.298 374.586 412.332C374.089 412.391 373.624 412.711 373.19 413.291C372.632 414.036 372.444 414.704 372.627 415.293C372.797 415.873 373.351 416.514 374.29 417.217L380.482 421.853C380.758 422.059 380.793 422.301 380.586 422.577L378.601 425.228ZM388.88 410.692C388.724 411 388.493 411.076 388.185 410.92L376.025 404.756C375.717 404.6 375.641 404.368 375.797 404.06L377.294 401.107C377.45 400.799 377.682 400.723 377.99 400.879L378.128 400.949C378.359 401.066 378.505 401.063 378.568 400.94C378.622 400.832 378.615 400.693 378.547 400.523C378.365 399.967 378.314 399.419 378.394 398.88C378.459 398.332 378.643 397.759 378.947 397.159C380.039 395.005 381.506 393.98 383.349 394.083C383.974 394.109 384.559 394.232 385.106 394.451C385.644 394.647 386.406 394.994 387.391 395.493L394.244 398.967C394.551 399.123 394.627 399.355 394.471 399.662L392.974 402.616C392.818 402.924 392.586 402.999 392.279 402.844L385.379 399.346C384.733 399.019 384.202 398.808 383.786 398.713C383.378 398.603 383.016 398.593 382.699 398.684C382.22 398.828 381.817 399.223 381.489 399.869C381.068 400.699 380.999 401.389 381.281 401.938C381.548 402.48 382.205 403.016 383.251 403.546L390.15 407.043C390.458 407.199 390.533 407.431 390.377 407.738L388.88 410.692ZM398.734 388.508C398.282 389.957 397.577 391.146 396.619 392.076C395.649 392.984 394.526 393.573 393.25 393.844C391.978 394.098 390.651 394.009 389.268 393.578C388.017 393.188 386.911 392.563 385.95 391.704C384.978 390.823 384.305 389.737 383.931 388.446C383.545 387.133 383.601 385.678 384.099 384.081C384.505 382.78 385.132 381.666 385.981 380.739C386.835 379.795 387.925 379.168 389.25 378.858C390.58 378.532 392.101 378.636 393.814 379.17L394.036 379.239C394.365 379.342 394.478 379.558 394.376 379.887L391.558 388.926C391.502 389.108 391.51 389.255 391.583 389.368C391.661 389.464 391.79 389.514 391.97 389.516C392.484 389.549 392.965 389.483 393.415 389.316C394.297 388.976 394.908 388.264 395.247 387.177C395.411 386.65 395.448 386.156 395.357 385.694C395.249 385.227 395.042 384.819 394.736 384.47C394.551 384.25 394.495 384.025 394.567 383.794L395.56 380.609C395.616 380.427 395.699 380.309 395.807 380.252C395.915 380.195 396.021 380.201 396.126 380.27C397.377 381.184 398.261 382.345 398.78 383.753C399.304 385.145 399.288 386.73 398.734 388.508ZM390.097 383.268C390.138 383.137 390.139 383.019 390.099 382.916C390.063 382.797 389.988 382.72 389.873 382.684L389.66 382.671C389.312 382.744 389.031 382.836 388.815 382.95C388.102 383.324 387.599 383.98 387.307 384.918C387.014 385.857 387.055 386.683 387.429 387.395C387.576 387.676 387.763 387.915 387.991 388.113C388.035 388.144 388.09 388.171 388.156 388.191C388.271 388.227 388.375 388.214 388.466 388.152C388.558 388.091 388.624 387.994 388.665 387.862L390.097 383.268Z" fill="white"/>
</g>
</svg>
