<svg preserveAspectRatio="none" width="100%" height="100%" overflow="visible" style="display: block;" viewBox="0 0 597.248 471.453" fill="none" xmlns="http://www.w3.org/2000/svg">
<g id="Group 34266">
<path id="Vector" d="M111.79 257.236C90.7227 271.646 76.2699 285.736 64.25 308.208C55.4532 324.675 50.5711 356.962 24.1235 348.992C-5.31468 340.113 13.8417 301.573 23.5221 283.67C38.5224 255.891 65.7987 229.872 93.3887 214.671C99.6135 211.247 118.359 205.19 121.207 201.857C125.225 197.198 131.595 171.696 135.459 163.393C150.857 130.187 200.754 62.9706 239.72 61.5752C266.494 60.6152 273.098 92.1674 252.597 105.537C247.876 108.611 241.835 108.084 235.207 113.048C209.704 132.064 184.441 163.65 175.087 194.183C195.61 200.686 218.073 204.436 235.472 218.46C292.834 264.608 303.206 367.822 222.998 390.692C150.566 411.366 111.979 314.547 111.808 257.189L111.79 257.236ZM159.698 258.501C158.637 279.405 168.33 313.737 181.261 330.113C212.104 369.111 243.102 327.072 231.56 290.932C221.582 259.746 194.646 243.324 162.863 242.432C161.606 243.205 159.829 256.034 159.722 258.51L159.698 258.501Z" fill="#C3EA4F" fill-opacity="0.6"/>
<path id="100% plein air v&#195;&#169;rifi&#195;&#169;" d="M200.179 356.749C200.543 356.801 200.698 357.009 200.646 357.372L198.717 370.807C198.673 371.116 198.741 371.283 198.923 371.309C199.014 371.322 199.142 371.267 199.309 371.142C199.932 370.675 200.643 370.305 201.443 370.03C202.222 369.771 203.04 369.629 203.896 369.604L204.005 369.619C204.314 369.664 204.444 369.858 204.394 370.203L203.921 373.501C203.874 373.828 203.681 374.004 203.344 374.03C200.894 374.308 199.054 375.37 197.825 377.215C197.64 377.466 197.403 377.571 197.112 377.529L193.406 376.997C193.043 376.945 192.887 376.737 192.939 376.374L195.768 356.672C195.82 356.309 196.028 356.153 196.391 356.205L200.179 356.749ZM186.664 352.209C189.008 353.306 190.437 354.928 190.952 357.074C191.467 359.221 190.895 362.064 189.238 365.604C187.603 369.094 185.813 371.316 183.867 372.269C181.913 373.239 179.773 373.179 177.446 372.09C175.102 370.992 173.681 369.374 173.183 367.236C172.668 365.09 173.235 362.255 174.885 358.731C176.52 355.241 178.314 353.011 180.268 352.041C182.205 351.063 184.337 351.119 186.664 352.209ZM184.896 356.245C184.297 355.965 183.729 355.881 183.19 355.993C182.651 356.105 182.063 356.539 181.425 357.295C180.78 358.067 180.08 359.259 179.325 360.871C178.57 362.483 178.115 363.78 177.959 364.761C177.787 365.734 177.831 366.464 178.089 366.95C178.34 367.452 178.765 367.844 179.363 368.124C179.962 368.404 180.526 368.476 181.056 368.339C181.579 368.219 182.15 367.777 182.771 367.014C183.375 366.243 184.051 365.06 184.798 363.464C185.561 361.835 186.04 360.53 186.237 359.548C186.426 358.582 186.399 357.861 186.157 357.382C185.914 356.904 185.494 356.525 184.896 356.245ZM174.591 344.365C176.552 346.054 177.491 348.001 177.408 350.206C177.325 352.412 176.009 354.996 173.458 357.958C170.943 360.878 168.62 362.535 166.489 362.929C164.346 363.336 162.301 362.701 160.354 361.024C158.393 359.336 157.461 357.395 157.557 355.201C157.64 352.996 158.951 350.419 161.49 347.47C164.005 344.55 166.334 342.886 168.477 342.479C170.606 342.06 172.644 342.688 174.591 344.365ZM171.8 347.775C171.299 347.344 170.774 347.109 170.225 347.072C169.676 347.035 168.992 347.294 168.175 347.85C167.345 348.419 166.35 349.379 165.188 350.728C164.026 352.077 163.238 353.203 162.824 354.105C162.396 354.996 162.241 355.711 162.36 356.248C162.466 356.8 162.769 357.291 163.27 357.723C163.771 358.154 164.295 358.375 164.842 358.386C165.378 358.411 166.047 358.14 166.851 357.572C167.64 356.993 168.61 356.036 169.76 354.701C170.933 353.338 171.747 352.21 172.201 351.317C172.643 350.438 172.812 349.736 172.707 349.21C172.603 348.684 172.301 348.206 171.8 347.775ZM156.748 342.951C157.235 343.64 157.528 344.388 157.626 345.195C157.709 346.013 157.565 346.811 157.194 347.59C156.823 348.369 156.218 349.055 155.379 349.648C154.539 350.242 153.696 350.59 152.848 350.695C151.99 350.784 151.203 350.655 150.485 350.308C149.768 349.961 149.166 349.443 148.679 348.753C148.181 348.049 147.911 347.285 147.868 346.461C147.815 345.622 147.986 344.815 148.383 344.041C148.764 343.277 149.33 342.63 150.079 342.101C150.814 341.582 151.612 341.265 152.475 341.15C153.312 341.03 154.111 341.128 154.874 341.443C155.636 341.759 156.26 342.261 156.748 342.951ZM167.766 338.603C167.851 338.723 167.897 338.837 167.905 338.943C167.898 339.061 167.85 339.151 167.76 339.215C167.67 339.278 167.566 339.306 167.449 339.299L143.77 340.423C143.491 340.441 143.266 340.33 143.097 340.09L141.762 338.202C141.678 338.082 141.639 337.963 141.646 337.846C141.638 337.739 141.679 337.654 141.769 337.59C141.859 337.527 141.962 337.499 142.08 337.506L165.774 336.404C166.054 336.386 166.278 336.497 166.448 336.737L167.766 338.603ZM153.982 344.905C153.781 344.62 153.497 344.472 153.13 344.462C152.748 344.462 152.377 344.589 152.017 344.844C151.583 345.151 151.327 345.489 151.251 345.857C151.163 346.211 151.22 346.53 151.422 346.815C151.623 347.1 151.89 347.271 152.222 347.328C152.555 347.385 152.961 347.244 153.441 346.905C154.31 346.291 154.491 345.624 153.982 344.905ZM160.729 327.834C161.216 328.523 161.509 329.271 161.607 330.078C161.691 330.896 161.547 331.694 161.176 332.473C160.805 333.252 160.2 333.938 159.36 334.531C158.521 335.124 157.685 335.468 156.853 335.562C155.994 335.651 155.207 335.522 154.49 335.175C153.772 334.828 153.17 334.31 152.683 333.62C152.185 332.916 151.915 332.152 151.872 331.328C151.819 330.489 151.99 329.682 152.387 328.908C152.768 328.144 153.334 327.497 154.083 326.967C154.818 326.449 155.609 326.137 156.456 326.032C157.293 325.913 158.093 326.011 158.855 326.326C159.617 326.642 160.242 327.144 160.729 327.834ZM158.009 329.756C157.818 329.486 157.534 329.338 157.157 329.313C156.764 329.298 156.38 329.423 156.006 329.688C155.571 329.995 155.315 330.333 155.239 330.702C155.162 331.07 155.225 331.397 155.426 331.682C155.902 332.357 156.568 332.392 157.422 331.788C158.322 331.153 158.517 330.475 158.009 329.756ZM136.727 315.721C136.262 314.483 136.176 313.261 136.467 312.054C136.742 310.853 137.363 309.767 138.331 308.795C139.276 307.813 140.487 307.045 141.965 306.49C143.425 305.941 144.843 305.722 146.218 305.833C147.569 305.934 148.751 306.342 149.766 307.059C150.763 307.783 151.494 308.763 151.958 310C152.21 310.67 152.338 311.298 152.343 311.885C152.364 312.465 152.247 313.038 151.989 313.605C151.897 313.777 151.873 313.923 151.918 314.044C151.97 314.181 152.125 314.202 152.382 314.105L157.588 312.149C157.932 312.02 158.168 312.128 158.297 312.471L159.536 315.77C159.665 316.114 159.558 316.35 159.215 316.479L140.581 323.477C140.238 323.607 140.001 323.499 139.872 323.156L138.633 319.857C138.504 319.513 138.612 319.277 138.955 319.148L139.239 319.041C139.445 318.964 139.525 318.865 139.48 318.745C139.448 318.659 139.314 318.562 139.077 318.455C138.51 318.197 138.044 317.843 137.678 317.392C137.296 316.948 136.979 316.391 136.727 315.721ZM140.867 315.548C141.229 316.51 141.88 317.147 142.821 317.461C143.762 317.774 144.825 317.708 146.011 317.262C147.179 316.824 148.014 316.177 148.517 315.321C149.019 314.466 149.089 313.558 148.728 312.595C148.366 311.633 147.715 310.996 146.774 310.682C145.816 310.376 144.761 310.439 143.61 310.871C142.442 311.31 141.607 311.957 141.104 312.812C140.585 313.674 140.506 314.585 140.867 315.548ZM147.983 299.056C148.272 300.157 148.239 301.077 147.883 301.815C147.509 302.559 146.843 303.057 145.884 303.309L129.11 307.717C128.755 307.81 128.531 307.68 128.437 307.325L127.542 303.916C127.448 303.561 127.579 303.337 127.934 303.244L143.164 299.241C143.785 299.078 144.019 298.704 143.865 298.118L143.711 297.532C143.618 297.177 143.749 296.953 144.104 296.86L146.66 296.188C147.015 296.094 147.239 296.225 147.332 296.58L147.983 299.056ZM146.14 287.708C146.407 289.301 146.31 290.769 145.847 292.112C145.363 293.441 144.58 294.54 143.498 295.411C142.413 296.263 141.111 296.817 139.59 297.073C138.215 297.304 136.864 297.242 135.539 296.888C134.193 296.519 133.032 295.812 132.056 294.766C131.059 293.705 130.413 292.297 130.117 290.542C129.877 289.112 129.937 287.752 130.297 286.463C130.654 285.156 131.387 284.038 132.497 283.107C133.603 282.158 135.097 281.525 136.979 281.208L137.223 281.167C137.585 281.107 137.797 281.257 137.858 281.619L139.528 291.556C139.562 291.755 139.64 291.89 139.764 291.963C139.885 292.017 140.031 292.001 140.203 291.917C140.707 291.702 141.132 291.407 141.478 291.032C142.153 290.286 142.39 289.316 142.189 288.121C142.092 287.542 141.889 287.055 141.581 286.66C141.254 286.268 140.861 285.981 140.403 285.797C140.122 285.677 139.96 285.49 139.917 285.237L139.329 281.735C139.295 281.536 139.316 281.383 139.391 281.277C139.467 281.172 139.571 281.126 139.703 281.141C141.33 281.407 142.728 282.084 143.897 283.172C145.064 284.241 145.811 285.754 146.14 287.708ZM135.421 286.886C135.397 286.741 135.341 286.63 135.253 286.551C135.163 286.455 135.054 286.418 134.927 286.439L134.719 286.53C134.424 286.765 134.201 286.989 134.05 287.2C133.553 287.898 133.392 288.763 133.565 289.794C133.739 290.826 134.174 291.59 134.872 292.087C135.147 292.283 135.44 292.42 135.75 292.498C135.808 292.507 135.873 292.505 135.945 292.493C136.072 292.472 136.164 292.41 136.221 292.307C136.278 292.204 136.294 292.081 136.27 291.936L135.421 286.886ZM144.286 277.869C144.317 278.234 144.149 278.433 143.784 278.464L129.328 279.692C128.962 279.723 128.763 279.556 128.732 279.19L128.434 275.679C128.403 275.313 128.57 275.115 128.936 275.084L143.392 273.855C143.758 273.824 143.956 273.992 143.987 274.357L144.286 277.869ZM127.513 277.526C127.576 278.257 127.418 278.897 127.041 279.445C126.644 279.976 126.089 280.271 125.376 280.332C124.663 280.393 124.065 280.195 123.585 279.738C123.102 279.264 122.83 278.66 122.768 277.929C122.706 277.197 122.873 276.566 123.27 276.035C123.665 275.486 124.22 275.181 124.933 275.12C125.646 275.06 126.244 275.267 126.726 275.741C127.189 276.199 127.451 276.794 127.513 277.526ZM143.826 270.999C143.83 271.366 143.648 271.552 143.281 271.556L128.774 271.718C128.407 271.722 128.221 271.541 128.217 271.174L128.178 267.65C128.174 267.283 128.355 267.098 128.722 267.094L128.887 267.092C129.163 267.089 129.3 267.014 129.298 266.867C129.296 266.738 129.222 266.611 129.073 266.484C128.628 266.048 128.31 265.556 128.121 265.008C127.913 264.46 127.805 263.828 127.797 263.112C127.768 260.543 128.648 258.853 130.438 258.044C131.041 257.762 131.654 257.59 132.277 257.528C132.882 257.448 133.771 257.401 134.946 257.388L143.122 257.296C143.489 257.292 143.674 257.474 143.678 257.841L143.718 261.364C143.722 261.731 143.541 261.917 143.174 261.921L134.943 262.013C134.172 262.022 133.567 262.084 133.128 262.199C132.688 262.295 132.341 262.464 132.087 262.706C131.706 263.077 131.519 263.648 131.528 264.419C131.539 265.41 131.813 266.095 132.35 266.475C132.868 266.854 133.751 267.037 134.999 267.023L143.23 266.931C143.597 266.927 143.782 267.109 143.786 267.476L143.826 270.999ZM145.062 244.235C144.877 245.71 144.324 246.88 143.401 247.745C142.463 248.589 141.248 248.918 139.754 248.731C138.115 248.525 136.949 247.723 136.255 246.322C136.007 245.792 135.828 245.224 135.719 244.618C135.612 243.995 135.534 243.291 135.484 242.508L135.294 238.933C135.278 238.764 135.229 238.638 135.147 238.554C135.049 238.449 134.908 238.394 134.724 238.39C134.164 238.431 133.721 238.569 133.395 238.806C132.988 239.106 132.741 239.603 132.654 240.295C132.595 240.768 132.686 241.223 132.927 241.66C133.15 242.095 133.496 242.435 133.965 242.678C134.261 242.826 134.39 243.046 134.354 243.337L133.919 246.807C133.894 247.007 133.821 247.146 133.701 247.223C133.582 247.282 133.434 247.282 133.257 247.223C131.681 246.656 130.564 245.683 129.904 244.306C129.244 242.929 129.015 241.439 129.216 239.836C129.334 238.889 129.572 238.022 129.93 237.234C130.29 236.429 130.762 235.757 131.348 235.22C131.933 234.683 132.588 234.321 133.315 234.135C134.041 233.948 134.781 233.874 135.534 233.913C136.29 233.934 137.287 234.022 138.525 234.177L145.327 235.029C145.691 235.075 145.851 235.28 145.805 235.644L145.367 239.14C145.321 239.505 145.117 239.664 144.752 239.618L144.506 239.587C144.179 239.546 144.007 239.59 143.991 239.717C143.979 239.808 144.033 239.898 144.151 239.987C144.377 240.255 144.55 240.499 144.67 240.718C145.118 241.569 145.249 242.742 145.062 244.235ZM141.76 242.462C141.829 241.915 141.771 241.344 141.587 240.748C141.416 240.19 141.144 239.777 140.771 239.508C140.382 239.219 139.846 238.994 139.163 238.835L139.108 238.828C138.926 238.805 138.792 238.844 138.705 238.944C138.6 239.042 138.555 239.184 138.568 239.371L138.732 241.611C138.759 242.132 138.809 242.545 138.882 242.85C138.957 243.137 139.074 243.383 139.233 243.588C139.472 243.895 139.783 244.073 140.165 244.121C140.621 244.178 140.988 244.048 141.268 243.732C141.53 243.413 141.694 242.99 141.76 242.462ZM146.321 232.402C146.253 232.763 146.038 232.909 145.678 232.84L131.424 230.133C131.063 230.065 130.917 229.85 130.986 229.49L131.643 226.028C131.712 225.667 131.926 225.521 132.287 225.59L146.54 228.296C146.901 228.365 147.047 228.579 146.979 228.94L146.321 232.402ZM130.26 227.558C130.123 228.28 129.799 228.853 129.288 229.279C128.763 229.684 128.149 229.82 127.446 229.686C126.743 229.553 126.221 229.201 125.881 228.632C125.544 228.045 125.444 227.391 125.581 226.67C125.718 225.949 126.049 225.386 126.574 224.981C127.103 224.558 127.719 224.414 128.422 224.547C129.125 224.681 129.645 225.041 129.982 225.628C130.304 226.194 130.397 226.837 130.26 227.558ZM147.742 225.381C147.656 225.738 147.435 225.874 147.078 225.789L132.969 222.411C132.612 222.326 132.476 222.105 132.561 221.748L133.382 218.321C133.467 217.964 133.688 217.828 134.045 217.913L134.206 217.952C134.474 218.016 134.625 217.977 134.659 217.834C134.689 217.709 134.647 217.567 134.534 217.408C134.195 216.855 134 216.289 133.95 215.711C133.899 215.133 133.966 214.46 134.15 213.692C134.235 213.335 134.456 213.2 134.813 213.285L138.026 214.054C138.383 214.14 138.519 214.361 138.433 214.718L138.357 215.039C138.083 216.181 138.146 217.102 138.545 217.802C138.825 218.284 139.266 218.691 139.866 219.024C140.465 219.356 141.274 219.644 142.291 219.887L148.155 221.291C148.512 221.376 148.648 221.597 148.562 221.954L147.742 225.381ZM153.716 204.594C153.612 204.888 153.403 205.038 153.089 205.044L137.595 205.243C137.537 205.242 137.465 205.226 137.379 205.195C137.257 205.152 137.178 205.075 137.139 204.964C137.101 204.853 137.106 204.728 137.155 204.59L138.407 201.061C138.511 200.767 138.726 200.629 139.051 200.647L146.514 201.017C146.764 201.027 146.916 200.955 146.971 200.799C147.027 200.643 146.954 200.491 146.754 200.342L140.763 195.821C140.499 195.63 140.42 195.388 140.524 195.094L141.776 191.565C141.825 191.427 141.9 191.327 142 191.265C142.1 191.203 142.21 191.193 142.331 191.236L142.52 191.362L154.424 201.282C154.664 201.484 154.732 201.732 154.628 202.026L153.716 204.594ZM160.331 189.066C159.667 190.539 158.768 191.704 157.636 192.562C156.494 193.396 155.232 193.873 153.849 193.994C152.473 194.098 151.082 193.832 149.677 193.198C148.406 192.624 147.318 191.821 146.415 190.789C145.502 189.733 144.931 188.499 144.703 187.087C144.465 185.651 144.712 184.121 145.445 182.499C146.041 181.177 146.848 180.081 147.865 179.211C148.889 178.325 150.121 177.803 151.561 177.648C153.008 177.475 154.601 177.782 156.341 178.567L156.567 178.669C156.901 178.82 156.993 179.063 156.842 179.397L152.697 188.581C152.614 188.765 152.604 188.921 152.667 189.05C152.737 189.163 152.867 189.231 153.057 189.257C153.595 189.359 154.112 189.35 154.608 189.232C155.584 188.988 156.321 188.314 156.82 187.21C157.061 186.674 157.164 186.157 157.128 185.657C157.075 185.15 156.909 184.693 156.63 184.285C156.463 184.029 156.433 183.783 156.539 183.549L158 180.312C158.083 180.128 158.185 180.013 158.306 179.967C158.428 179.921 158.54 179.942 158.642 180.028C159.845 181.155 160.629 182.496 160.994 184.05C161.368 185.588 161.147 187.26 160.331 189.066ZM151.886 182.415C151.946 182.282 151.962 182.158 151.932 182.044C151.911 181.913 151.842 181.822 151.724 181.769L151.501 181.728C151.124 181.76 150.815 181.821 150.572 181.913C149.771 182.216 149.155 182.844 148.725 183.798C148.294 184.751 148.231 185.629 148.533 186.43C148.653 186.745 148.82 187.022 149.035 187.26C149.077 187.299 149.132 187.334 149.199 187.364C149.316 187.417 149.427 187.417 149.532 187.364C149.636 187.31 149.719 187.217 149.779 187.083L151.886 182.415ZM144.059 182.96C143.998 183.094 143.924 183.192 143.836 183.253C143.739 183.289 143.649 183.289 143.565 183.251C143.481 183.213 143.4 183.126 143.32 182.99L141.559 179.597C141.426 179.356 141.417 179.11 141.53 178.859L142.787 176.074C142.847 175.94 142.922 175.843 143.01 175.782C143.098 175.721 143.183 175.709 143.267 175.747C143.367 175.792 143.454 175.912 143.528 176.106L144.94 180.338C145.032 180.581 145.025 180.819 144.919 181.053L144.059 182.96ZM164.307 179.745C164.133 180.068 163.884 180.142 163.561 179.968L150.793 173.079C150.47 172.904 150.396 172.656 150.57 172.333L152.243 169.232C152.418 168.909 152.666 168.834 152.989 169.008L153.135 169.087C153.377 169.218 153.533 169.218 153.603 169.089C153.664 168.976 153.66 168.828 153.592 168.645C153.406 168.024 153.363 167.427 153.463 166.855C153.563 166.284 153.8 165.65 154.175 164.956C154.349 164.633 154.598 164.559 154.921 164.733L157.828 166.302C158.151 166.476 158.226 166.725 158.051 167.048L157.894 167.338C157.337 168.372 157.161 169.278 157.366 170.056C157.514 170.595 157.835 171.102 158.329 171.577C158.823 172.052 159.531 172.538 160.451 173.035L165.757 175.898C166.08 176.072 166.155 176.321 165.981 176.644L164.307 179.745ZM169.51 170.282C169.32 170.596 169.069 170.659 168.754 170.47L156.32 162.994C156.006 162.805 155.943 162.553 156.132 162.238L157.948 159.218C158.137 158.904 158.389 158.841 158.703 159.03L171.137 166.506C171.452 166.695 171.514 166.947 171.325 167.262L169.51 170.282ZM156.12 160.175C155.742 160.804 155.239 161.23 154.613 161.453C153.98 161.651 153.357 161.565 152.743 161.196C152.13 160.828 151.762 160.317 151.64 159.666C151.527 158.998 151.66 158.35 152.038 157.721C152.416 157.092 152.922 156.678 153.555 156.481C154.197 156.267 154.825 156.345 155.438 156.714C156.052 157.083 156.415 157.601 156.528 158.268C156.634 158.91 156.498 159.546 156.12 160.175ZM173.944 163.275C173.736 163.577 173.48 163.624 173.178 163.415L164.183 157.207C163.881 156.999 163.626 157.046 163.417 157.348L162.776 158.277C162.568 158.579 162.312 158.626 162.01 158.417L159.971 157.01C159.669 156.801 159.622 156.546 159.831 156.244L160.472 155.315C160.68 155.013 160.633 154.758 160.331 154.549L159.538 154.002C158.526 153.303 157.96 152.444 157.838 151.424C157.717 150.404 158.063 149.305 158.877 148.126L160.018 146.472C160.227 146.17 160.482 146.123 160.784 146.332L162.8 147.724C163.103 147.932 163.149 148.187 162.941 148.489L162.441 149.215C162.305 149.411 162.246 149.626 162.262 149.861C162.279 150.095 162.446 150.322 162.763 150.541L162.989 150.697C163.292 150.906 163.547 150.859 163.755 150.557L164.459 149.537C164.667 149.235 164.923 149.188 165.225 149.397L167.264 150.804C167.566 151.012 167.613 151.268 167.405 151.57L166.701 152.59C166.492 152.892 166.539 153.147 166.841 153.355L175.837 159.563C176.139 159.772 176.186 160.027 175.977 160.329L173.944 163.275ZM179.12 155.775C178.912 156.077 178.656 156.124 178.354 155.915L166.413 147.675C166.111 147.466 166.064 147.211 166.273 146.909L168.274 144.009C168.483 143.706 168.738 143.66 169.04 143.868L180.981 152.109C181.283 152.317 181.33 152.572 181.121 152.875L179.12 155.775ZM166.39 144.849C165.973 145.453 165.445 145.847 164.806 146.03C164.162 146.188 163.545 146.063 162.956 145.657C162.367 145.25 162.032 144.718 161.951 144.06C161.88 143.387 162.053 142.748 162.47 142.144C162.887 141.539 163.418 141.159 164.062 141.001C164.716 140.828 165.338 140.945 165.927 141.352C166.516 141.758 166.846 142.298 166.916 142.971C166.982 143.619 166.807 144.245 166.39 144.849ZM187.754 145.161C186.724 146.405 185.549 147.291 184.23 147.819C182.909 148.322 181.565 148.449 180.199 148.199C178.845 147.936 177.574 147.313 176.386 146.33C175.312 145.44 174.475 144.378 173.877 143.144C173.276 141.885 173.051 140.543 173.204 139.121C173.354 137.673 173.997 136.264 175.132 134.892C176.057 133.775 177.124 132.932 178.335 132.361C179.557 131.777 180.883 131.6 182.313 131.83C183.754 132.046 185.21 132.763 186.68 133.98L186.871 134.138C187.154 134.372 187.178 134.63 186.944 134.913L180.519 142.675C180.391 142.83 180.339 142.979 180.366 143.119C180.404 143.246 180.511 143.347 180.687 143.421C181.179 143.662 181.68 143.791 182.19 143.808C183.196 143.83 184.085 143.375 184.858 142.442C185.232 141.989 185.468 141.518 185.565 141.026C185.648 140.523 185.609 140.038 185.447 139.571C185.355 139.28 185.39 139.035 185.554 138.837L187.819 136.101C187.947 135.946 188.076 135.862 188.206 135.85C188.335 135.838 188.437 135.887 188.513 135.997C189.375 137.402 189.777 138.902 189.719 140.498C189.673 142.079 189.017 143.634 187.754 145.161ZM181.366 136.514C181.46 136.401 181.508 136.286 181.509 136.168C181.523 136.037 181.48 135.93 181.382 135.848L181.177 135.75C180.805 135.681 180.49 135.658 180.232 135.682C179.379 135.763 178.619 136.206 177.952 137.012C177.285 137.818 176.992 138.647 177.072 139.5C177.104 139.836 177.192 140.147 177.336 140.433C177.367 140.482 177.41 140.53 177.467 140.577C177.566 140.659 177.673 140.688 177.788 140.664C177.903 140.64 178.007 140.572 178.101 140.459L181.366 136.514ZM173.673 134.971C173.58 135.084 173.482 135.158 173.381 135.194C173.278 135.204 173.191 135.179 173.12 135.121C173.05 135.062 172.994 134.957 172.954 134.804L172.152 131.067C172.087 130.799 172.143 130.559 172.319 130.347L174.267 127.993C174.361 127.88 174.458 127.806 174.559 127.77C174.66 127.735 174.746 127.746 174.816 127.805C174.901 127.875 174.953 128.013 174.973 128.22L175.217 132.675C175.241 132.933 175.171 133.161 175.007 133.359L173.673 134.971Z" fill="white"/>
</g>
</svg>
