<svg preserveAspectRatio="none" width="100%" height="100%" overflow="visible" style="display: block;" viewBox="0 0 31.815 30.406" fill="none" xmlns="http://www.w3.org/2000/svg">
<path id="Star 1" d="M14.4809 1.03647C14.9299 -0.345492 16.885 -0.345491 17.3341 1.03647L20.061 9.42909C20.2618 10.0471 20.8377 10.4656 21.4876 10.4656H30.3121C31.7652 10.4656 32.3693 12.325 31.1938 13.1791L24.0546 18.366C23.5289 18.748 23.3089 19.425 23.5097 20.0431L26.2366 28.4357C26.6856 29.8176 25.1039 30.9668 23.9283 30.1127L16.7892 24.9258C16.2634 24.5438 15.5515 24.5438 15.0258 24.9258L7.88662 30.1127C6.71105 30.9668 5.12933 29.8176 5.57836 28.4357L8.30528 20.0431C8.5061 19.425 8.28611 18.748 7.76038 18.366L0.621197 13.1791C-0.554373 12.325 0.049791 10.4656 1.50288 10.4656H10.3274C10.9772 10.4656 11.5532 10.0471 11.754 9.42908L14.4809 1.03647Z" fill="#C3EA4F"/>
</svg>
