<svg preserveAspectRatio="none" width="100%" height="100%" overflow="visible" style="display: block;" viewBox="0 0 24 24" fill="none" xmlns="http://www.w3.org/2000/svg">
<path id="Vector" d="M9.96624 24C9.60243 24 9.29336 23.9039 9.03904 23.7116C8.78491 23.5193 8.64018 23.2454 8.60484 22.8897L8.17035 20.2135C7.9 20.1376 7.60068 20.0047 7.2724 19.8149C6.94412 19.6251 6.67377 19.4448 6.46135 19.274L4.02821 20.3843C3.70224 20.5362 3.36189 20.561 3.00716 20.4589C2.65223 20.3566 2.39395 20.142 2.23231 19.8149L0.233659 16.2847C0.0405524 16.019 -0.0222073 15.7153 0.0453801 15.3737C0.112967 15.032 0.301247 14.7568 0.610218 14.548L2.86957 12.8683C2.85026 12.7727 2.8406 12.6351 2.8406 12.4555V11.6014C2.8406 11.4409 2.85026 11.2938 2.86957 11.1601L0.610218 9.53737C0.301247 9.30961 0.10814 9.02966 0.0308971 8.69751C-0.0463456 8.36536 0.0212417 8.04745 0.233659 7.74377L2.24332 4.17964C2.40978 3.91753 2.66198 3.72479 2.99991 3.60142C3.33785 3.47805 3.67096 3.4828 3.99924 3.61566L6.51929 4.75445C6.71239 4.62159 6.97309 4.46026 7.30137 4.27046C7.62965 4.08066 7.91931 3.94781 8.17035 3.87189L8.60484 1.1795C8.64346 0.810723 8.78935 0.521945 9.04252 0.313167C9.29587 0.104389 9.60378 0 9.96624 0H14.0215C14.3853 0 14.6944 0.103629 14.9487 0.310889C15.2028 0.518149 15.3476 0.803606 15.3829 1.16726L15.8174 3.84342C16.1034 3.92028 16.4065 4.05343 16.7269 4.24285C17.0475 4.43208 17.314 4.60261 17.5264 4.75445L19.9595 3.61566C20.3071 3.4828 20.6499 3.47805 20.9878 3.60142C21.3258 3.72479 21.5805 3.91782 21.7519 4.1805L23.8155 7.74833C23.987 8.04897 24.0341 8.37011 23.9568 8.71174C23.8796 9.05338 23.6865 9.32859 23.3775 9.53737L21.0892 11.0747C21.1085 11.2266 21.1326 11.3879 21.1616 11.5587C21.1906 11.7295 21.2051 11.8817 21.2051 12.0151C21.2051 12.1485 21.1906 12.2954 21.1616 12.4558C21.1326 12.6164 21.1085 12.7634 21.0892 12.8968L23.4065 14.5196C23.7154 14.7094 23.9037 14.9751 23.9713 15.3167C24.0389 15.6584 23.9871 15.9771 23.8158 16.273L21.7554 19.8149C21.5938 20.123 21.3452 20.3329 21.0095 20.4447C20.6741 20.5563 20.3338 20.5362 19.9885 20.3843L17.5264 19.274C17.314 19.4448 17.0388 19.6299 16.7008 19.8292C16.3629 20.0285 16.0781 20.1566 15.8463 20.2135L15.3829 22.8897C15.3476 23.2454 15.2028 23.5193 14.9487 23.7116C14.6944 23.9039 14.3853 24 14.0215 24H9.96624ZM11.9649 15.6299C12.9884 15.6299 13.8573 15.2788 14.5718 14.5765C15.2863 13.8743 15.6436 13.0249 15.6436 12.0285C15.6436 11.032 15.2863 10.1779 14.5718 9.46619C13.8573 8.75445 12.9884 8.39858 11.9649 8.39858C10.9221 8.39858 10.0483 8.75445 9.34347 9.46619C8.63863 10.1779 8.28621 11.032 8.28621 12.0285C8.28621 13.0249 8.63863 13.8743 9.34347 14.5765C10.0483 15.2788 10.9221 15.6299 11.9649 15.6299Z" fill="#F4F0ED"/>
</svg>
