<svg preserveAspectRatio="none" width="100%" height="100%" overflow="visible" style="display: block;" viewBox="0 0 15.4689 14.861" fill="none" xmlns="http://www.w3.org/2000/svg">
<path id="Star 1" d="M6.70744 1.17797C7.03061 0.183372 8.43799 0.183375 8.76115 1.17797L9.93889 4.80199C9.96784 4.89083 10.0505 4.95139 10.144 4.95141H13.9545C15.0002 4.95141 15.435 6.28877 14.5893 6.90356L11.5063 9.14379C11.4306 9.19876 11.3993 9.29608 11.4281 9.385L12.6059 13.009C12.929 14.0036 11.7898 14.8307 10.9438 14.2161L7.86174 11.9768C7.78607 11.9218 7.68351 11.9218 7.60783 11.9768L4.52483 14.2161C3.67877 14.8308 2.54053 14.0036 2.86369 13.009L4.04143 9.385C4.07018 9.29611 4.03792 9.19872 3.96233 9.14379L0.879318 6.90356C0.0339167 6.28875 0.468619 4.95156 1.51408 4.95141H5.32463C5.41807 4.95141 5.50072 4.8908 5.52971 4.80199L6.70744 1.17797Z" fill="#C3EA4F" stroke="#C3EA4F" stroke-width="0.863636"/>
</svg>
