<svg preserveAspectRatio="none" width="100%" height="100%" overflow="visible" style="display: block;" viewBox="0 0 22 20" fill="none" xmlns="http://www.w3.org/2000/svg">
<path id="Vector" d="M3.3 20V17.7778H18.7V20H3.3ZM3.3 16.1111L1.8975 7.19444C1.86083 7.19444 1.81958 7.19907 1.77375 7.20833C1.72792 7.21759 1.68667 7.22222 1.65 7.22222C1.19167 7.22222 0.802083 7.06019 0.48125 6.73611C0.160417 6.41204 0 6.01852 0 5.55556C0 5.09259 0.160417 4.69907 0.48125 4.375C0.802083 4.05093 1.19167 3.88889 1.65 3.88889C2.10833 3.88889 2.49792 4.05093 2.81875 4.375C3.13958 4.69907 3.3 5.09259 3.3 5.55556C3.3 5.68519 3.28625 5.80556 3.25875 5.91667C3.23125 6.02778 3.19917 6.12963 3.1625 6.22222L6.6 7.77778L10.0375 3.02778C9.83583 2.87963 9.67083 2.68519 9.5425 2.44444C9.41417 2.2037 9.35 1.94444 9.35 1.66667C9.35 1.2037 9.51042 0.810185 9.83125 0.486111C10.1521 0.162037 10.5417 0 11 0C11.4583 0 11.8479 0.162037 12.1688 0.486111C12.4896 0.810185 12.65 1.2037 12.65 1.66667C12.65 1.94444 12.5858 2.2037 12.4575 2.44444C12.3292 2.68519 12.1642 2.87963 11.9625 3.02778L15.4 7.77778L18.8375 6.22222C18.8008 6.12963 18.7688 6.02778 18.7413 5.91667C18.7138 5.80556 18.7 5.68519 18.7 5.55556C18.7 5.09259 18.8604 4.69907 19.1813 4.375C19.5021 4.05093 19.8917 3.88889 20.35 3.88889C20.8083 3.88889 21.1979 4.05093 21.5188 4.375C21.8396 4.69907 22 5.09259 22 5.55556C22 6.01852 21.8396 6.41204 21.5188 6.73611C21.1979 7.06019 20.8083 7.22222 20.35 7.22222C20.3133 7.22222 20.2721 7.21759 20.2263 7.20833C20.1804 7.19907 20.1392 7.19444 20.1025 7.19444L18.7 16.1111H3.3ZM5.17 13.8889H16.83L17.545 9.25L14.6575 10.5278L11 5.44444L7.3425 10.5278L4.455 9.25L5.17 13.8889Z" fill="#F4F0ED"/>
</svg>
