<svg preserveAspectRatio="none" width="100%" height="100%" overflow="visible" style="display: block;" viewBox="0 0 28 25" fill="none" xmlns="http://www.w3.org/2000/svg">
<path id="Union" d="M11 18.75C12.1522 18.75 13.1508 19.4006 13.6533 20.3535C13.767 20.3272 13.8852 20.3125 14.0068 20.3125H26.4375C27.3004 20.3125 28 21.0121 28 21.875C28 22.7379 27.3004 23.4375 26.4375 23.4375H14.0068C13.8851 23.4375 13.767 23.4218 13.6533 23.3955C13.1509 24.3488 12.1525 25 11 25H10.7773C9.62477 24.9998 8.62532 24.349 8.12305 23.3955C8.00971 23.4217 7.89179 23.4375 7.77051 23.4375H1.5625C0.699555 23.4375 0 22.7379 0 21.875C0 21.0121 0.699555 20.3125 1.5625 20.3125H7.77051C7.89172 20.3125 8.00977 20.3274 8.12305 20.3535C8.62545 19.4004 9.62508 18.7502 10.7773 18.75H11ZM11 9.375C12.1522 9.375 13.1508 10.0256 13.6533 10.9785C13.767 10.9522 13.8852 10.9375 14.0068 10.9375H26.4375C27.3004 10.9375 28 11.6371 28 12.5C28 13.3629 27.3004 14.0625 26.4375 14.0625H14.0068C13.8851 14.0625 13.767 14.0468 13.6533 14.0205C13.1509 14.9738 12.1525 15.625 11 15.625H10.7773C9.62477 15.6248 8.62532 14.974 8.12305 14.0205C8.00971 14.0467 7.89179 14.0625 7.77051 14.0625H1.5625C0.699555 14.0625 0 13.3629 0 12.5C0 11.6371 0.699555 10.9375 1.5625 10.9375H7.77051C7.89172 10.9375 8.00977 10.9524 8.12305 10.9785C8.62545 10.0254 9.62508 9.37516 10.7773 9.375H11ZM16.5996 0C17.7356 0 18.7241 0.63154 19.2334 1.5625H26.4375C27.3004 1.5625 28 2.26206 28 3.125C28 3.98794 27.3004 4.6875 26.4375 4.6875H19.2334C18.7241 5.61846 17.7356 6.25 16.5996 6.25H16.3779C15.2421 6.25 14.2544 5.61829 13.7451 4.6875H1.5625C0.699556 4.6875 0 3.98794 0 3.125C0 2.26206 0.699555 1.5625 1.5625 1.5625H13.7451C14.2544 0.631711 15.2421 0 16.3779 0H16.5996Z" fill="#F4F0ED"/>
</svg>
