<svg preserveAspectRatio="none" width="100%" height="100%" overflow="visible" style="display: block;" viewBox="0 0 28 25" fill="none" xmlns="http://www.w3.org/2000/svg">
<path id="Union" d="M14.1113 18.75C15.2635 18.7501 16.2621 19.4006 16.7646 20.3535C16.8783 20.3272 16.9966 20.3125 17.1182 20.3125H26.4375C27.3004 20.3125 28 21.0121 28 21.875C28 22.7379 27.3004 23.4375 26.4375 23.4375H17.1182C16.9965 23.4375 16.8783 23.4218 16.7646 23.3955C16.2623 24.3488 15.2638 24.9999 14.1113 25H13.8887C12.2319 24.9999 10.8887 23.6568 10.8887 22V21.75C10.8887 20.0932 12.2319 18.7501 13.8887 18.75H14.1113ZM7.77051 20.3125C8.63345 20.3125 9.33301 21.0121 9.33301 21.875C9.33301 22.7379 8.63345 23.4375 7.77051 23.4375H1.5625C0.699555 23.4375 0 22.7379 0 21.875C0 21.0121 0.699555 20.3125 1.5625 20.3125H7.77051ZM7.88867 9.375C9.54553 9.375 10.8887 10.7181 10.8887 12.375V12.625C10.8887 14.2819 9.54553 15.625 7.88867 15.625H7.66699C6.53102 15.625 5.54246 14.9935 5.0332 14.0625H1.5625C0.699555 14.0625 0 13.3629 0 12.5C0 11.6371 0.699555 10.9375 1.5625 10.9375H5.0332C5.54246 10.0065 6.53102 9.375 7.66699 9.375H7.88867ZM26.4375 10.9375C27.3004 10.9375 28 11.6371 28 12.5C28 13.3629 27.3004 14.0625 26.4375 14.0625H14.0068C13.1439 14.0624 12.4443 13.3629 12.4443 12.5C12.4443 11.6371 13.1439 10.9376 14.0068 10.9375H26.4375ZM20.333 0C21.469 0 22.4575 0.631525 22.9668 1.5625H26.4375C27.3004 1.5625 28 2.26206 28 3.125C28 3.98794 27.3004 4.6875 26.4375 4.6875H22.9668C22.4575 5.61847 21.469 6.25 20.333 6.25H20.1113C18.4545 6.25 17.1113 4.90685 17.1113 3.25V3C17.1113 1.34315 18.4545 0 20.1113 0H20.333ZM13.9932 1.5625C14.8561 1.56256 15.5557 2.26209 15.5557 3.125C15.5557 3.98791 14.8561 4.68744 13.9932 4.6875H1.5625C0.699556 4.6875 0 3.98794 0 3.125C0 2.26206 0.699555 1.5625 1.5625 1.5625H13.9932Z" fill="#F4F0ED"/>
</svg>
