<svg preserveAspectRatio="none" width="100%" height="100%" overflow="visible" style="display: block;" viewBox="0 0 31.5 35" fill="none" xmlns="http://www.w3.org/2000/svg">
<g id="Vector">
<path d="M0 30.742V13.1016C0 12.4075 0.136117 11.768 0.408351 11.1832C0.680278 10.5983 1.09599 10.0992 1.65547 9.68583L13.1978 0.795455C13.8931 0.265152 14.7337 0 15.7197 0C16.7056 0 17.5664 0.265152 18.3022 0.795455L29.8445 9.68583C30.3734 10.0992 30.7816 10.5983 31.0691 11.1832C31.3564 11.768 31.5 12.4075 31.5 13.1016V30.742C31.5 31.9196 31.0843 32.9236 30.2529 33.7539C29.4212 34.5846 28.4266 35 27.2693 35H21.7511C21.115 35 20.6035 34.7952 20.2166 34.3856C19.8294 33.9764 19.6358 33.4637 19.6358 32.8476V22.6939C19.6358 22.109 19.4347 21.6117 19.0324 21.2021C18.6299 20.7929 18.1412 20.5882 17.5664 20.5882H13.9336C13.3281 20.5882 12.8243 20.7929 12.422 21.2021C12.0195 21.6117 11.8182 22.109 11.8182 22.6939V32.8476C11.8182 33.4637 11.6248 33.9764 11.2379 34.3856C10.8507 34.7952 10.3544 35 9.74891 35H4.18467C3.02737 35 2.04068 34.5846 1.22459 33.7539C0.408197 32.9236 0 31.9196 0 30.742Z" fill="#083025"/>
<path d="M0 30.742V13.1016C0 12.4075 0.136117 11.768 0.408351 11.1832C0.680278 10.5983 1.09599 10.0992 1.65547 9.68583L13.1978 0.795455C13.8931 0.265152 14.7337 0 15.7197 0C16.7056 0 17.5664 0.265152 18.3022 0.795455L29.8445 9.68583C30.3734 10.0992 30.7816 10.5983 31.0691 11.1832C31.3564 11.768 31.5 12.4075 31.5 13.1016V30.742C31.5 31.9196 31.0843 32.9236 30.2529 33.7539C29.4212 34.5846 28.4266 35 27.2693 35H21.7511C21.115 35 20.6035 34.7952 20.2166 34.3856C19.8294 33.9764 19.6358 33.4637 19.6358 32.8476V22.6939C19.6358 22.109 19.4347 21.6117 19.0324 21.2021C18.6299 20.7929 18.1412 20.5882 17.5664 20.5882H13.9336C13.3281 20.5882 12.8243 20.7929 12.422 21.2021C12.0195 21.6117 11.8182 22.109 11.8182 22.6939V32.8476C11.8182 33.4637 11.6248 33.9764 11.2379 34.3856C10.8507 34.7952 10.3544 35 9.74891 35H4.18467C3.02737 35 2.04068 34.5846 1.22459 33.7539C0.408197 32.9236 0 31.9196 0 30.742Z" fill="black" fill-opacity="0.2"/>
</g>
</svg>
