<svg preserveAspectRatio="none" width="100%" height="100%" overflow="visible" style="display: block;" viewBox="0 0 40.25 35" fill="none" xmlns="http://www.w3.org/2000/svg">
<g id="Vector">
<path d="M8.26563 35C7.44142 35 6.7088 34.7467 6.06775 34.2401C5.4267 33.7336 4.98407 33.0811 4.73986 32.2829L0.0693774 15.2434C-0.0832529 14.6601 0.0159568 14.1228 0.367006 13.6316C0.718056 13.1404 1.19884 12.8947 1.80936 12.8947H10.5093L18.5682 0.828947C18.7208 0.583333 18.9345 0.383772 19.2092 0.230263C19.484 0.0767544 19.7739 0 20.0792 0C20.3845 0 20.6745 0.0767544 20.9492 0.230263C21.2239 0.383772 21.4376 0.583333 21.5903 0.828947L29.6491 12.8947H38.4406C39.0512 12.8947 39.5319 13.1404 39.883 13.6316C40.234 14.1228 40.3333 14.6601 40.1806 15.2434L35.5101 32.2829C35.2659 33.0811 34.8233 33.7336 34.1823 34.2401C33.5412 34.7467 32.8086 35 31.9844 35H8.26563ZM22.7121 26.5493C23.4294 25.8279 23.7881 24.9605 23.7881 23.9474C23.7881 22.9342 23.4294 22.0669 22.7121 21.3454C21.9947 20.6239 21.1324 20.2632 20.125 20.2632C19.1176 20.2632 18.2553 20.6239 17.5379 21.3454C16.8206 22.0669 16.4619 22.9342 16.4619 23.9474C16.4619 24.9605 16.8206 25.8279 17.5379 26.5493C18.2553 27.2708 19.1176 27.6316 20.125 27.6316C21.1324 27.6316 21.9947 27.2708 22.7121 26.5493ZM14.9508 12.8947H25.2534L20.0792 5.15789L14.9508 12.8947Z" fill="#083025"/>
<path d="M8.26563 35C7.44142 35 6.7088 34.7467 6.06775 34.2401C5.4267 33.7336 4.98407 33.0811 4.73986 32.2829L0.0693774 15.2434C-0.0832529 14.6601 0.0159568 14.1228 0.367006 13.6316C0.718056 13.1404 1.19884 12.8947 1.80936 12.8947H10.5093L18.5682 0.828947C18.7208 0.583333 18.9345 0.383772 19.2092 0.230263C19.484 0.0767544 19.7739 0 20.0792 0C20.3845 0 20.6745 0.0767544 20.9492 0.230263C21.2239 0.383772 21.4376 0.583333 21.5903 0.828947L29.6491 12.8947H38.4406C39.0512 12.8947 39.5319 13.1404 39.883 13.6316C40.234 14.1228 40.3333 14.6601 40.1806 15.2434L35.5101 32.2829C35.2659 33.0811 34.8233 33.7336 34.1823 34.2401C33.5412 34.7467 32.8086 35 31.9844 35H8.26563ZM22.7121 26.5493C23.4294 25.8279 23.7881 24.9605 23.7881 23.9474C23.7881 22.9342 23.4294 22.0669 22.7121 21.3454C21.9947 20.6239 21.1324 20.2632 20.125 20.2632C19.1176 20.2632 18.2553 20.6239 17.5379 21.3454C16.8206 22.0669 16.4619 22.9342 16.4619 23.9474C16.4619 24.9605 16.8206 25.8279 17.5379 26.5493C18.2553 27.2708 19.1176 27.6316 20.125 27.6316C21.1324 27.6316 21.9947 27.2708 22.7121 26.5493ZM14.9508 12.8947H25.2534L20.0792 5.15789L14.9508 12.8947Z" fill="black" fill-opacity="0.2"/>
</g>
</svg>
