<svg preserveAspectRatio="none" width="100%" height="100%" overflow="visible" style="display: block;" viewBox="0 0 42 35" fill="none" xmlns="http://www.w3.org/2000/svg">
<g id="Vector">
<path d="M9.8643 34.2095C9.36743 34.7365 8.73904 35 7.97912 35H2.98121C2.17453 35 1.47599 34.7043 0.885595 34.1129C0.295198 33.5215 0 32.8218 0 32.0138V27.0075C0 26.2873 0.265971 25.6681 0.797912 25.1499C1.32985 24.6317 1.95532 24.3726 2.67432 24.3726C3.43424 24.3726 4.06263 24.6317 4.5595 25.1499C5.05637 25.6681 5.3048 26.2873 5.3048 27.0075V29.6863H7.97912C8.73904 29.6863 9.36743 29.9352 9.8643 30.4329C10.3612 30.9306 10.6096 31.5527 10.6096 32.2992C10.6096 33.0458 10.3612 33.6826 9.8643 34.2095ZM41.2547 25.1499C41.7516 25.6681 42 26.2873 42 27.0075V32.0138C42 32.8218 41.715 33.5215 41.1451 34.1129C40.5752 34.7043 39.8664 35 39.0188 35H34.0647C33.3048 35 32.6764 34.7365 32.1795 34.2095C31.6827 33.6826 31.4342 33.0458 31.4342 32.2992C31.4342 31.5527 31.69 30.9306 32.2015 30.4329C32.7129 29.9352 33.3486 29.6863 34.1086 29.6863H36.6952V27.0075C36.6952 26.2873 36.9582 25.6681 37.4843 25.1499C38.0104 24.6317 38.6461 24.3726 39.3914 24.3726C40.1367 24.3726 40.7578 24.6317 41.2547 25.1499ZM8.37369 28.1493C7.96451 28.1493 7.61378 27.9985 7.3215 27.697C7.02923 27.3954 6.88309 27.0339 6.88309 26.6123V8.34379C6.88309 7.92221 7.02923 7.57528 7.3215 7.30301C7.61378 7.03074 7.96451 6.8946 8.37369 6.8946H8.94363C9.36451 6.8946 9.71086 7.03806 9.98267 7.32497C10.2545 7.61188 10.3904 7.96612 10.3904 8.3877V26.6562C10.3904 27.0778 10.2545 27.432 9.98267 27.7189C9.71086 28.0059 9.36451 28.1493 8.94363 28.1493H8.37369ZM12.4005 27.8858C12.2295 27.7102 12.144 27.4906 12.144 27.2271V7.76895C12.144 7.50809 12.2317 7.29716 12.4071 7.13614C12.5825 6.97511 12.7974 6.8946 13.052 6.8946C13.3069 6.8946 13.5188 6.97804 13.6877 7.14492C13.8569 7.31179 13.9415 7.52112 13.9415 7.7729V27.2271C13.9415 27.4906 13.8561 27.7102 13.6851 27.8858C13.5141 28.0615 13.3 28.1493 13.0428 28.1493C12.7856 28.1493 12.5715 28.0615 12.4005 27.8858ZM19.0271 28.1493C18.6063 28.1493 18.2453 27.9985 17.9443 27.697C17.6432 27.3954 17.4927 27.0339 17.4927 26.6123V8.34379C17.4927 7.92221 17.6432 7.57528 17.9443 7.30301C18.2453 7.03074 18.6063 6.8946 19.0271 6.8946H19.5532C19.9741 6.8946 20.3205 7.03806 20.5923 7.32497C20.8641 7.61188 21 7.96612 21 8.3877V26.6562C21 27.0778 20.8641 27.432 20.5923 27.7189C20.3205 28.0059 19.9741 28.1493 19.5532 28.1493H19.0271ZM24.2881 28.1493C23.8789 28.1493 23.5282 27.9985 23.2359 27.697C22.9436 27.3954 22.7975 27.0339 22.7975 26.6123V8.34379C22.7975 7.92221 22.9436 7.57528 23.2359 7.30301C23.5282 7.03074 23.8789 6.8946 24.2881 6.8946H26.6117C27.0209 6.8946 27.3716 7.03806 27.6639 7.32497C27.9562 7.61188 28.1023 7.96612 28.1023 8.3877V26.6562C28.1023 27.0778 27.9562 27.432 27.6639 27.7189C27.3716 28.0059 27.0209 28.1493 26.6117 28.1493H24.2881ZM30.1058 27.8858C29.9392 27.7102 29.856 27.4906 29.856 27.2271V7.76895C29.856 7.50809 29.9392 7.29716 30.1058 7.13614C30.2724 6.97511 30.4814 6.8946 30.7328 6.8946C30.9841 6.8946 31.1931 6.97804 31.3597 7.14492C31.5263 7.31179 31.6096 7.52112 31.6096 7.7729V27.2271C31.6096 27.4906 31.5263 27.7102 31.3597 27.8858C31.1931 28.0615 30.9841 28.1493 30.7328 28.1493C30.4814 28.1493 30.2724 28.0615 30.1058 27.8858ZM33.6197 27.8858C33.4487 27.7102 33.3633 27.4906 33.3633 27.2271V7.76895C33.3633 7.50809 33.4509 7.29716 33.6263 7.13614C33.8017 6.97511 34.0166 6.8946 34.2712 6.8946C34.5261 6.8946 34.738 6.97804 34.9069 7.14492C35.0761 7.31179 35.1608 7.52112 35.1608 7.7729V27.2271C35.1608 27.4906 35.0753 27.7102 34.9043 27.8858C34.7333 28.0615 34.5192 28.1493 34.262 28.1493C34.0048 28.1493 33.7907 28.0615 33.6197 27.8858ZM9.8643 4.54517C9.36743 5.05751 8.73904 5.31368 7.97912 5.31368H5.3048V7.99247C5.3048 8.75366 5.05637 9.3831 4.5595 9.8808C4.06263 10.3785 3.44154 10.6274 2.69624 10.6274C1.95094 10.6274 1.31524 10.3712 0.789144 9.85885C0.263048 9.34651 0 8.70975 0 7.94856V2.9862C0 2.17817 0.295198 1.47846 0.885595 0.887077C1.47599 0.295693 2.17453 0 2.98121 0H7.97912C8.73904 0 9.36743 0.256169 9.8643 0.768507C10.3612 1.28084 10.6096 1.91029 10.6096 2.65684C10.6096 3.40339 10.3612 4.03283 9.8643 4.54517ZM32.2015 0.768507C32.7129 0.256169 33.3486 0 34.1086 0H39.0188C39.8664 0 40.5752 0.295693 41.1451 0.887077C41.715 1.47846 42 2.17817 42 2.9862V7.99247C42 8.75366 41.7516 9.3831 41.2547 9.8808C40.7578 10.3785 40.1367 10.6274 39.3914 10.6274C38.6461 10.6274 38.0104 10.3712 37.4843 9.85885C36.9582 9.34651 36.6952 8.70975 36.6952 7.94856V5.31368H34.0647C33.3048 5.31368 32.6764 5.05751 32.1795 4.54517C31.6827 4.03283 31.4342 3.40339 31.4342 2.65684C31.4342 1.91029 31.69 1.28084 32.2015 0.768507Z" fill="#083025"/>
<path d="M9.8643 34.2095C9.36743 34.7365 8.73904 35 7.97912 35H2.98121C2.17453 35 1.47599 34.7043 0.885595 34.1129C0.295198 33.5215 0 32.8218 0 32.0138V27.0075C0 26.2873 0.265971 25.6681 0.797912 25.1499C1.32985 24.6317 1.95532 24.3726 2.67432 24.3726C3.43424 24.3726 4.06263 24.6317 4.5595 25.1499C5.05637 25.6681 5.3048 26.2873 5.3048 27.0075V29.6863H7.97912C8.73904 29.6863 9.36743 29.9352 9.8643 30.4329C10.3612 30.9306 10.6096 31.5527 10.6096 32.2992C10.6096 33.0458 10.3612 33.6826 9.8643 34.2095ZM41.2547 25.1499C41.7516 25.6681 42 26.2873 42 27.0075V32.0138C42 32.8218 41.715 33.5215 41.1451 34.1129C40.5752 34.7043 39.8664 35 39.0188 35H34.0647C33.3048 35 32.6764 34.7365 32.1795 34.2095C31.6827 33.6826 31.4342 33.0458 31.4342 32.2992C31.4342 31.5527 31.69 30.9306 32.2015 30.4329C32.7129 29.9352 33.3486 29.6863 34.1086 29.6863H36.6952V27.0075C36.6952 26.2873 36.9582 25.6681 37.4843 25.1499C38.0104 24.6317 38.6461 24.3726 39.3914 24.3726C40.1367 24.3726 40.7578 24.6317 41.2547 25.1499ZM8.37369 28.1493C7.96451 28.1493 7.61378 27.9985 7.3215 27.697C7.02923 27.3954 6.88309 27.0339 6.88309 26.6123V8.34379C6.88309 7.92221 7.02923 7.57528 7.3215 7.30301C7.61378 7.03074 7.96451 6.8946 8.37369 6.8946H8.94363C9.36451 6.8946 9.71086 7.03806 9.98267 7.32497C10.2545 7.61188 10.3904 7.96612 10.3904 8.3877V26.6562C10.3904 27.0778 10.2545 27.432 9.98267 27.7189C9.71086 28.0059 9.36451 28.1493 8.94363 28.1493H8.37369ZM12.4005 27.8858C12.2295 27.7102 12.144 27.4906 12.144 27.2271V7.76895C12.144 7.50809 12.2317 7.29716 12.4071 7.13614C12.5825 6.97511 12.7974 6.8946 13.052 6.8946C13.3069 6.8946 13.5188 6.97804 13.6877 7.14492C13.8569 7.31179 13.9415 7.52112 13.9415 7.7729V27.2271C13.9415 27.4906 13.8561 27.7102 13.6851 27.8858C13.5141 28.0615 13.3 28.1493 13.0428 28.1493C12.7856 28.1493 12.5715 28.0615 12.4005 27.8858ZM19.0271 28.1493C18.6063 28.1493 18.2453 27.9985 17.9443 27.697C17.6432 27.3954 17.4927 27.0339 17.4927 26.6123V8.34379C17.4927 7.92221 17.6432 7.57528 17.9443 7.30301C18.2453 7.03074 18.6063 6.8946 19.0271 6.8946H19.5532C19.9741 6.8946 20.3205 7.03806 20.5923 7.32497C20.8641 7.61188 21 7.96612 21 8.3877V26.6562C21 27.0778 20.8641 27.432 20.5923 27.7189C20.3205 28.0059 19.9741 28.1493 19.5532 28.1493H19.0271ZM24.2881 28.1493C23.8789 28.1493 23.5282 27.9985 23.2359 27.697C22.9436 27.3954 22.7975 27.0339 22.7975 26.6123V8.34379C22.7975 7.92221 22.9436 7.57528 23.2359 7.30301C23.5282 7.03074 23.8789 6.8946 24.2881 6.8946H26.6117C27.0209 6.8946 27.3716 7.03806 27.6639 7.32497C27.9562 7.61188 28.1023 7.96612 28.1023 8.3877V26.6562C28.1023 27.0778 27.9562 27.432 27.6639 27.7189C27.3716 28.0059 27.0209 28.1493 26.6117 28.1493H24.2881ZM30.1058 27.8858C29.9392 27.7102 29.856 27.4906 29.856 27.2271V7.76895C29.856 7.50809 29.9392 7.29716 30.1058 7.13614C30.2724 6.97511 30.4814 6.8946 30.7328 6.8946C30.9841 6.8946 31.1931 6.97804 31.3597 7.14492C31.5263 7.31179 31.6096 7.52112 31.6096 7.7729V27.2271C31.6096 27.4906 31.5263 27.7102 31.3597 27.8858C31.1931 28.0615 30.9841 28.1493 30.7328 28.1493C30.4814 28.1493 30.2724 28.0615 30.1058 27.8858ZM33.6197 27.8858C33.4487 27.7102 33.3633 27.4906 33.3633 27.2271V7.76895C33.3633 7.50809 33.4509 7.29716 33.6263 7.13614C33.8017 6.97511 34.0166 6.8946 34.2712 6.8946C34.5261 6.8946 34.738 6.97804 34.9069 7.14492C35.0761 7.31179 35.1608 7.52112 35.1608 7.7729V27.2271C35.1608 27.4906 35.0753 27.7102 34.9043 27.8858C34.7333 28.0615 34.5192 28.1493 34.262 28.1493C34.0048 28.1493 33.7907 28.0615 33.6197 27.8858ZM9.8643 4.54517C9.36743 5.05751 8.73904 5.31368 7.97912 5.31368H5.3048V7.99247C5.3048 8.75366 5.05637 9.3831 4.5595 9.8808C4.06263 10.3785 3.44154 10.6274 2.69624 10.6274C1.95094 10.6274 1.31524 10.3712 0.789144 9.85885C0.263048 9.34651 0 8.70975 0 7.94856V2.9862C0 2.17817 0.295198 1.47846 0.885595 0.887077C1.47599 0.295693 2.17453 0 2.98121 0H7.97912C8.73904 0 9.36743 0.256169 9.8643 0.768507C10.3612 1.28084 10.6096 1.91029 10.6096 2.65684C10.6096 3.40339 10.3612 4.03283 9.8643 4.54517ZM32.2015 0.768507C32.7129 0.256169 33.3486 0 34.1086 0H39.0188C39.8664 0 40.5752 0.295693 41.1451 0.887077C41.715 1.47846 42 2.17817 42 2.9862V7.99247C42 8.75366 41.7516 9.3831 41.2547 9.8808C40.7578 10.3785 40.1367 10.6274 39.3914 10.6274C38.6461 10.6274 38.0104 10.3712 37.4843 9.85885C36.9582 9.34651 36.6952 8.70975 36.6952 7.94856V5.31368H34.0647C33.3048 5.31368 32.6764 5.05751 32.1795 4.54517C31.6827 4.03283 31.4342 3.40339 31.4342 2.65684C31.4342 1.91029 31.69 1.28084 32.2015 0.768507Z" fill="black" fill-opacity="0.2"/>
</g>
</svg>
