<svg preserveAspectRatio="none" width="100%" height="100%" overflow="visible" style="display: block;" viewBox="0 0 32.375 35.3653" fill="none" xmlns="http://www.w3.org/2000/svg">
<g id="Vector">
<path d="M14.5927 35.3653V18.4203L0 10.167V23.8427C0 24.7996 0.239224 25.7033 0.717672 26.5539C1.19612 27.4045 1.86063 28.069 2.71121 28.5474L14.5927 35.3653ZM17.7823 35.3254L29.6638 28.5474C30.5144 28.069 31.1789 27.4045 31.6573 26.5539C32.1358 25.7033 32.375 24.7996 32.375 23.8427V10.0474L17.7823 18.3405V35.3254ZM25.0388 10.5657L30.5808 7.41595L18.8987 0.717672C18.0481 0.239224 17.1444 0 16.1875 0C15.2306 0 14.3269 0.239224 13.4763 0.717672L10.6853 2.3125L25.0388 10.5657ZM16.1078 15.6692L21.7694 12.4397L7.45582 4.14655L1.71444 7.45582L16.1078 15.6692Z" fill="#083025"/>
<path d="M14.5927 35.3653V18.4203L0 10.167V23.8427C0 24.7996 0.239224 25.7033 0.717672 26.5539C1.19612 27.4045 1.86063 28.069 2.71121 28.5474L14.5927 35.3653ZM17.7823 35.3254L29.6638 28.5474C30.5144 28.069 31.1789 27.4045 31.6573 26.5539C32.1358 25.7033 32.375 24.7996 32.375 23.8427V10.0474L17.7823 18.3405V35.3254ZM25.0388 10.5657L30.5808 7.41595L18.8987 0.717672C18.0481 0.239224 17.1444 0 16.1875 0C15.2306 0 14.3269 0.239224 13.4763 0.717672L10.6853 2.3125L25.0388 10.5657ZM16.1078 15.6692L21.7694 12.4397L7.45582 4.14655L1.71444 7.45582L16.1078 15.6692Z" fill="black" fill-opacity="0.2"/>
</g>
</svg>
