<svg preserveAspectRatio="none" width="100%" height="100%" overflow="visible" style="display: block;" viewBox="0 0 38.5 35" fill="none" xmlns="http://www.w3.org/2000/svg">
<path id="Vector" d="M2.93498 35C2.10052 35 1.40275 34.7198 0.841648 34.1595C0.280549 33.5991 0 32.9023 0 32.069V13.2759C0 12.4425 0.280549 11.7457 0.841648 11.1853C1.40275 10.625 2.10052 10.3448 2.93498 10.3448H8.287C9.09268 10.3448 9.78326 10.625 10.3587 11.1853C10.9342 11.7457 11.222 12.4425 11.222 13.2759V32.069C11.222 32.9023 10.9342 33.5991 10.3587 34.1595C9.78326 34.7198 9.09268 35 8.287 35H2.93498ZM16.574 35C15.7683 35 15.0777 34.7198 14.5022 34.1595C13.9268 33.5991 13.639 32.9023 13.639 32.069V2.93103C13.639 2.0977 13.9268 1.40086 14.5022 0.840517C15.0777 0.280172 15.7683 0 16.574 0H21.926C22.7317 0 23.4223 0.280172 23.9978 0.840517C24.5732 1.40086 24.861 2.0977 24.861 2.93103V32.069C24.861 32.9023 24.5732 33.5991 23.9978 34.1595C23.4223 34.7198 22.7317 35 21.926 35H16.574ZM30.213 35C29.4073 35 28.7167 34.7198 28.1413 34.1595C27.5658 33.5991 27.278 32.9023 27.278 32.069V16.7241C27.278 15.8908 27.5658 15.194 28.1413 14.6336C28.7167 14.0733 29.4073 13.7931 30.213 13.7931H35.565C36.3995 13.7931 37.0973 14.0733 37.6584 14.6336C38.2195 15.194 38.5 15.8908 38.5 16.7241V32.069C38.5 32.9023 38.2195 33.5991 37.6584 34.1595C37.0973 34.7198 36.3995 35 35.565 35H30.213Z" fill="#F4F0ED"/>
</svg>
