<svg preserveAspectRatio="none" width="100%" height="100%" overflow="visible" style="display: block;" viewBox="0 0 29.75 35" fill="none" xmlns="http://www.w3.org/2000/svg">
<g id="Group 4">
<g id="Subtract">
<path d="M14.875 0C18.8201 0 22.604 1.50818 25.3936 4.19336C28.1832 6.87854 29.75 10.5209 29.75 14.3184C29.7499 25.4546 18.375 35 14.875 35C11.375 35 0.000119983 25.4546 0 14.3184C5.87864e-08 10.5209 1.56685 6.87854 4.35645 4.19336C7.14605 1.50818 10.9299 0 14.875 0ZM14.875 9.625C11.9755 9.625 9.625 11.9755 9.625 14.875C9.625 17.7745 11.9755 20.125 14.875 20.125C17.7745 20.125 20.125 17.7745 20.125 14.875C20.125 11.9755 17.7745 9.625 14.875 9.625Z" fill="#083025"/>
<path d="M14.875 0C18.8201 0 22.604 1.50818 25.3936 4.19336C28.1832 6.87854 29.75 10.5209 29.75 14.3184C29.7499 25.4546 18.375 35 14.875 35C11.375 35 0.000119983 25.4546 0 14.3184C5.87864e-08 10.5209 1.56685 6.87854 4.35645 4.19336C7.14605 1.50818 10.9299 0 14.875 0ZM14.875 9.625C11.9755 9.625 9.625 11.9755 9.625 14.875C9.625 17.7745 11.9755 20.125 14.875 20.125C17.7745 20.125 20.125 17.7745 20.125 14.875C20.125 11.9755 17.7745 9.625 14.875 9.625Z" fill="black" fill-opacity="0.2"/>
</g>
</g>
</svg>
