<svg preserveAspectRatio="none" width="100%" height="100%" overflow="visible" style="display: block;" viewBox="0 0 40.25 34.6614" fill="none" xmlns="http://www.w3.org/2000/svg">
<path id="Vector" d="M30.2998 29.7274H27.8328C27.1201 29.7274 26.5307 29.4807 26.0648 28.9873C25.5988 28.4939 25.3658 27.8977 25.3658 27.1987C25.3658 26.4997 25.6056 25.9172 26.0853 25.4512C26.565 24.9852 27.1612 24.7522 27.8739 24.7522H30.2998V22.2441C30.2998 21.5314 30.5465 20.9421 31.0399 20.4761C31.5333 20.0101 32.1295 19.7771 32.8284 19.7771C33.5274 19.7771 34.1099 20.0101 34.5759 20.4761C35.0419 20.9421 35.2749 21.5314 35.2749 22.2441V24.7522H37.783C38.4957 24.7522 39.085 24.9852 39.551 25.4512C40.017 25.9172 40.25 26.4997 40.25 27.1987C40.25 27.8977 40.017 28.4939 39.551 28.9873C39.085 29.4807 38.4957 29.7274 37.783 29.7274H35.2749V32.1944C35.2749 32.907 35.0419 33.4964 34.5759 33.9624C34.1099 34.4284 33.5274 34.6614 32.8284 34.6614C32.1295 34.6614 31.5333 34.4215 31.0399 33.9418C30.5465 33.4621 30.2998 32.8659 30.2998 32.1532V29.7274ZM5.30083 30.303C4.53332 30.303 3.87545 30.0289 3.32723 29.4807C2.779 28.9324 2.50489 28.2746 2.50489 27.5071V20.3528H2.62824C1.75109 20.3528 1.05896 20.0307 0.55185 19.3865C0.0447446 18.7424 -0.112869 18.0091 0.0790085 17.1868L2.01149 8.67562C2.14855 8.01775 2.47748 7.49009 2.99829 7.09263C3.5191 6.69517 4.09474 6.49644 4.72519 6.49644H26.9282C27.5861 6.49644 28.1754 6.69517 28.6962 7.09263C29.217 7.49009 29.546 8.01775 29.683 8.67562L31.1221 14.9665C31.2866 15.7614 31.1084 16.4878 30.5876 17.1457C30.0668 17.8035 29.3952 18.1325 28.5729 18.1325H28.6551V20.3116C28.6551 21.0792 28.3878 21.737 27.8533 22.2852C27.3188 22.8335 26.6609 23.1076 25.8797 23.1076C25.0985 23.1076 24.4338 22.8335 23.8856 22.2852C23.3373 21.737 23.0632 21.0792 23.0632 20.3116V19.736H19.4861V27.5071C19.4861 28.2746 19.212 28.9324 18.6637 29.4807C18.1155 30.0289 17.4577 30.303 16.6901 30.303H5.30083ZM8.09676 24.7111H13.8942V20.3528H8.09676V24.7111ZM4.84854 4.85177C4.16327 4.85177 3.58763 4.61192 3.12164 4.13223C2.65565 3.65253 2.42266 3.07005 2.42266 2.38477C2.42266 1.69949 2.66251 1.13071 3.1422 0.678425C3.6219 0.226142 4.20438 0 4.88966 0H26.846C27.5312 0 28.1069 0.226142 28.5729 0.678425C29.0389 1.13071 29.2719 1.69949 29.2719 2.38477C29.2719 3.07005 29.032 3.65253 28.5523 4.13223C28.0726 4.61192 27.4901 4.85177 26.8049 4.85177H4.84854Z" fill="#F4F0ED"/>
</svg>
