<svg preserveAspectRatio="none" width="100%" height="100%" overflow="visible" style="display: block;" viewBox="0 0 34.125 34.125" fill="none" xmlns="http://www.w3.org/2000/svg">
<path id="Vector" d="M14.1708 34.125C13.6535 34.125 13.214 33.9883 12.8524 33.7149C12.491 33.4416 12.2853 33.052 12.235 32.5463L11.6172 28.7411C11.2328 28.6332 10.8072 28.4442 10.3404 28.1744C9.87367 27.9045 9.48927 27.6481 9.18724 27.4052L5.72761 28.984C5.26413 29.1999 4.78019 29.2352 4.2758 29.09C3.77113 28.9446 3.40389 28.6394 3.17407 28.1744L0.332234 23.1548C0.0576605 22.777 -0.031576 22.3452 0.0645248 21.8594C0.160626 21.3737 0.428335 20.9824 0.867653 20.6855L4.08017 18.2972C4.05271 18.1611 4.03898 17.9655 4.03898 17.7102V16.4958C4.03898 16.2675 4.05271 16.0583 4.08017 15.8683L0.867653 13.5609C0.428335 13.2371 0.153761 12.839 0.0439318 12.3668C-0.0658977 11.8945 0.0302031 11.4425 0.332234 11.0107L3.18972 5.94293C3.42641 5.57024 3.785 5.29619 4.2655 5.12077C4.74601 4.94536 5.21965 4.95211 5.68642 5.14101L9.26961 6.76023C9.54418 6.57132 9.91486 6.34193 10.3816 6.07206C10.8484 5.80219 11.2603 5.61329 11.6172 5.50534L12.235 1.6771C12.2899 1.15275 12.4974 0.742141 12.8573 0.445285C13.2176 0.148428 13.6554 0 14.1708 0H19.9368C20.4541 0 20.8936 0.147348 21.2552 0.442046C21.6165 0.736743 21.8223 1.14263 21.8725 1.6597L22.4903 5.46486C22.897 5.57415 23.3281 5.76347 23.7836 6.0328C24.2394 6.30186 24.6183 6.54434 24.9203 6.76023L28.3799 5.14101C28.8742 4.95211 29.3615 4.94536 29.842 5.12077C30.3226 5.29619 30.6847 5.57065 30.9285 5.94415L33.8626 11.0172C34.1065 11.4446 34.1734 11.9012 34.0636 12.387C33.9538 12.8728 33.6792 13.2641 33.2399 13.5609L29.9862 15.7469C30.0137 15.9628 30.048 16.1922 30.0892 16.4351C30.1304 16.6779 30.1509 16.8942 30.1509 17.084C30.1509 17.2737 30.1304 17.4826 30.0892 17.7106C30.048 17.9389 30.0137 18.1479 29.9862 18.3376L33.2811 20.645C33.7204 20.9149 33.9881 21.2927 34.0842 21.7785C34.1803 22.2642 34.1066 22.7175 33.863 23.1382L30.9335 28.1744C30.7037 28.6124 30.3501 28.9109 29.8729 29.0698C29.396 29.2285 28.9121 29.1999 28.4211 28.984L24.9203 27.4052C24.6183 27.6481 24.227 27.9113 23.7465 28.1946C23.266 28.478 22.861 28.6601 22.5315 28.7411L21.8725 32.5463C21.8223 33.052 21.6165 33.4416 21.2552 33.7149C20.8936 33.9883 20.4541 34.125 19.9368 34.125H14.1708ZM17.0126 22.2238C18.4678 22.2238 19.7034 21.7245 20.7193 20.726C21.7353 19.7275 22.2432 18.5198 22.2432 17.103C22.2432 15.6862 21.7353 14.4718 20.7193 13.4597C19.7034 12.4477 18.4678 11.9417 17.0126 11.9417C15.5299 11.9417 14.2874 12.4477 13.2853 13.4597C12.2831 14.4718 11.782 15.6862 11.782 17.103C11.782 18.5198 12.2831 19.7275 13.2853 20.726C14.2874 21.7245 15.5299 22.2238 17.0126 22.2238Z" fill="#F4F0ED"/>
</svg>
